<?xml version="1.0" encoding="utf-8"?><svg fill="none" viewBox="0 0 750 500" xmlns="http://www.w3.org/2000/svg"><defs /><g opacity="0" id="BG"><animate repeatCount="indefinite" attributeName="opacity" dur="0.6666666666666666s" begin="2.4624s" calcMode="spline" values="0; 1" keyTimes="0; 1" keySplines="0.333 0 0 1" fill="freeze" /><g transform="translate(374.52,239.521)"><g transform="scale(0.8,0.8)"><animateTransform repeatCount="indefinite" type="scale" attributeName="transform" dur="0.667s" begin="2.462s" calcMode="spline" values="0.8 0.8; 1 1" keyTimes="0; 1" keySplines="0.333 0 0 1" fill="freeze" /><g transform="translate(-317.916,-209.822)"><g id="Group 1" transform="matrix(1,0,0,1,323.633,211.847)"><path fill="#d9f4ff" fill-opacity="1" d="M-39.626,-204.765C-148.507,-211.597,-187.128,-157.895,-242.466,-102.349C-297.803,-46.807,-323.383,11.826,-291.226,95.287C-259.068,178.748,-183.144,199.97,-63.978,199.97C55.19,199.97,177.911,211.597,240.061,166.201C302.21,120.806,323.383,17.065,233.334,-37.216C180.297,-69.188,110.889,-195.321,-39.626,-204.765Z" /></g></g></g></g></g><g opacity="0" id="Leaf 1"><animate repeatCount="indefinite" attributeName="opacity" dur="1.3333333333333333s" begin="2.4624s" calcMode="spline" values="0; 1" keyTimes="0; 1" keySplines="0.333 0 0 1" fill="freeze" /><g transform="translate(165.565,479.645)"><animateTransform repeatCount="indefinite" type="translate" attributeName="transform" dur="1.333s" begin="2.462s" calcMode="spline" values="165.565 479.645; 165.565 429.645" keyTimes="0; 1" keySplines="0.333 0 0 1" fill="freeze" /><g transform="rotate(0)"><animateTransform repeatCount="indefinite" type="rotate" attributeName="transform" dur="3s" begin="2.462s" calcMode="spline" values="0; -10; 0" keyTimes="0; 0.5; 1" keySplines="0.333 0 0.667 1; 0.333 0 0.667 1" fill="freeze" /><g transform="scale(1,1) translate(-52.019,-72.656)"><g id="Group 2" transform="matrix(1,0,0,1,26.182,34.162)"><path fill="#00acff" fill-opacity="1" d="M11.123,-6.198C5.471,-15.293,-1.586,-25.068,-11.194,-30.314C-14.31,-32.015,-18.37,-33.321,-21.577,-31.165C-25.647,-28.427,-25.002,-22.452,-23.952,-18.402C-20.956,-6.843,-12.744,2.132,-4.8,10.6C1.592,17.413,8.036,24.442,11.392,33.316C11.617,33.913,12.584,33.654,12.355,33.049C8.128,21.871,-0.736,13.668,-8.61,5.031C-12.829,0.403,-16.763,-4.497,-19.597,-10.109C-22.284,-15.428,-25.932,-23.417,-22.273,-29.047C-19.11,-33.913,-12.194,-29.969,-8.752,-27.652C-4.359,-24.695,-0.895,-20.729,2.432,-16.658C11.648,-5.374,18.584,7.854,22.57,21.865C23.551,25.312,24.293,28.823,24.866,32.359C24.968,32.994,25.932,32.725,25.829,32.094C23.621,18.455,18.399,5.512,11.123,-6.198Z" /></g><g id="Group 1" transform="matrix(1,0,0,1,32.739,45.15)"><path fill="#00acff" fill-opacity="1" d="M11.805,12.332C11.228,11.274,10.642,10.218,10.051,9.163C10.078,9.081,10.092,8.992,10.068,8.889C9.01,4.318,7.831,-0.284,6.214,-4.692C5.01,-7.978,3.672,-11.614,1.54,-14.423C1.157,-14.93,0.286,-14.433,0.676,-13.919C2.898,-10.99,4.227,-7.216,5.479,-3.803C6.684,-0.518,7.606,2.906,8.434,6.325C6.784,3.459,5.082,0.619,3.306,-2.147C-2.491,-11.175,-8.922,-19.902,-16.715,-27.319C-17.181,-27.764,-17.889,-27.058,-17.422,-26.612C-10.183,-19.723,-4.185,-11.708,1.299,-3.385C-4.067,-7.295,-10.029,-10.305,-15.538,-14.006C-16.075,-14.367,-16.575,-13.5,-16.044,-13.143C-9.973,-9.064,-3.319,-5.859,2.423,-1.298C2.516,-1.224,2.616,-1.197,2.715,-1.191C5.288,2.852,7.668,7.044,10.034,11.207C12.936,16.315,14.589,21.722,16.691,27.169C16.921,27.764,17.889,27.506,17.656,26.903C15.759,21.985,14.342,16.98,11.805,12.332Z" /></g></g></g></g></g><g opacity="0" id="Leaf 2"><animate repeatCount="indefinite" attributeName="opacity" dur="1.3333333333333333s" begin="2.4624s" calcMode="spline" values="0; 1" keyTimes="0; 1" keySplines="0.333 0 0 1" fill="freeze" /><g transform="translate(174.068,479.854)"><animateTransform repeatCount="indefinite" type="translate" attributeName="transform" dur="1.333s" begin="2.462s" calcMode="spline" values="174.068 479.854; 174.068 429.854" keyTimes="0; 1" keySplines="0.333 0 0 1" fill="freeze" /><g transform="rotate(0)"><animateTransform repeatCount="indefinite" type="rotate" attributeName="transform" dur="3s" begin="2.462s" calcMode="spline" values="0; 3; 0" keyTimes="0; 0.5; 1" keySplines="0.333 0 0.667 1; 0.333 0 0.667 1" fill="freeze" /><g transform="scale(1,1) translate(-30.554,-109.782)"><g id="Group 2" transform="matrix(1,0,0,1,15.405,52.401)"><path fill="#00acff" fill-opacity="1" d="M15.013,5.382C14.85,-8.471,13.318,-22.389,8.354,-35.409C6.534,-40.182,4.376,-45.946,0.035,-48.997C-4.452,-52.151,-9.448,-48.684,-11.898,-44.77C-15.156,-39.561,-14.951,-32.628,-14.293,-26.779C-13.532,-20.023,-11.906,-13.356,-10.029,-6.835C-4.447,12.555,4.28,31.165,5.919,51.507C5.97,52.146,6.971,52.151,6.919,51.507C5.754,37.046,1.061,23.312,-3.616,9.68C-8.239,-3.793,-13.439,-18.007,-13.672,-32.415C-13.772,-38.635,-10.934,-51.283,-2.067,-48.906C0.93,-48.102,2.817,-44.848,4.171,-42.314C5.954,-38.976,7.352,-35.423,8.584,-31.85C13.234,-18.367,14.069,-3.935,14.034,10.214C14.007,20.856,14.148,31.514,14.148,42.173C14.148,42.224,14.814,42.167,15.148,42.167C14.146,29.943,15.156,17.629,15.013,5.382Z" /></g><g id="Group 1" transform="matrix(1,0,0,1,18.801,61.532)"><path fill="#00acff" fill-opacity="1" d="M4.36,9.043C4.464,8.963,4.54,8.844,4.556,8.682C5.135,2.557,6.115,-3.511,7.121,-9.577C7.227,-10.208,6.263,-10.477,6.158,-9.843C5.266,-4.473,4.414,0.901,3.816,6.311C3.431,4.365,3.038,2.419,2.654,0.473C2.39,-0.869,2.124,-2.212,1.858,-3.554C1.872,-3.621,1.873,-3.693,1.855,-3.773C1.8,-4.021,1.735,-4.259,1.672,-4.497C0.425,-10.772,-0.849,-17.046,-2.246,-23.286C-2.46,-24.24,-2.691,-25.191,-2.932,-26.143C-2.846,-26.221,-2.778,-26.324,-2.76,-26.464C-2.176,-30.915,-2.365,-35.606,-0.992,-39.917C-0.795,-40.533,-1.761,-40.794,-1.955,-40.182C-3.15,-36.435,-3.19,-32.403,-3.543,-28.484C-5.245,-34.847,-7.199,-41.195,-7.592,-47.766C-7.629,-48.406,-8.63,-48.41,-8.592,-47.766C-8.141,-40.227,-5.587,-33.089,-3.85,-25.792C-2.539,-20.282,-1.395,-14.725,-0.283,-9.164C-0.721,-9.928,-1.202,-10.686,-1.735,-11.471C-4.202,-15.104,-6.504,-18.876,-9.044,-22.456C-9.413,-22.977,-10.281,-22.479,-9.907,-21.952C-7.711,-18.855,-5.916,-15.515,-3.655,-12.464C-1.72,-9.853,-0.124,-7.321,0.707,-4.212C0.906,-3.208,1.105,-2.203,1.306,-1.2C2.902,6.79,4.334,14.817,6.05,22.783C7.821,31.002,9.235,39.337,9.278,47.766C9.281,48.41,10.281,48.41,10.278,47.766C10.239,40.182,9.078,32.689,7.589,25.271C6.503,19.863,5.433,14.453,4.36,9.043Z" /></g></g></g></g></g><g opacity="0" id="Leaf 3"><animate repeatCount="indefinite" attributeName="opacity" dur="1.3333333333333333s" begin="2.4624s" calcMode="spline" values="0; 1" keyTimes="0; 1" keySplines="0.333 0 0 1" fill="freeze" /><g transform="translate(173.055,479.647)"><animateTransform repeatCount="indefinite" type="translate" attributeName="transform" dur="1.333s" begin="2.462s" calcMode="spline" values="173.055 479.647; 173.055 429.647" keyTimes="0; 1" keySplines="0.333 0 0 1" fill="freeze" /><g transform="rotate(0)"><animateTransform repeatCount="indefinite" type="rotate" attributeName="transform" dur="3s" begin="2.462s" calcMode="spline" values="0; 10; 0" keyTimes="0; 0.5; 1" keySplines="0.333 0 0.667 1; 0.333 0 0.667 1" fill="freeze" /><g transform="scale(1,1) translate(-0.276,-88.823)"><g id="Group 2" transform="matrix(1,0,0,1,15.283,44.664)"><path fill="#00acff" fill-opacity="1" d="M13.002,-26.636C12.862,-29.963,12.297,-33.263,11.452,-36.479C10.693,-39.368,9.799,-41.563,7.2,-43.186C5.371,-44.328,3.032,-44.414,0.962,-44.159C-1.676,-43.834,-2.581,-43.13,-3.997,-40.982C-4.538,-40.16,-5.805,-38.938,-6.071,-38.058C-6.581,-36.38,-7.072,-34.699,-7.546,-33.011C-8.548,-29.441,-9.429,-25.836,-10.227,-22.215C-11.688,-15.583,-12.743,-8.866,-13.511,-2.12C-14.692,8.258,-15.033,18.718,-15.005,29.157L-14.005,29.157C-15.008,16.932,-13.213,-0.644,-10.582,-15.338C-9.327,-22.349,-7.626,-29.273,-5.616,-36.103C-4.896,-38.549,-2.612,-42.295,-0.103,-42.946C3.626,-43.912,8.241,-42.872,9.675,-38.846C15.033,-23.807,10.492,-7.617,5.5,6.841C3.393,12.944,1.295,19.042,-1.414,24.902C-3.624,29.684,-5.795,34.486,-7.919,39.307C-8.542,40.72,-9.157,42.135,-9.75,43.561C-9.998,44.157,-9.03,44.414,-8.786,43.827C-4.993,34.705,-0.274,25.942,3.059,16.647C8.053,2.72,13.631,-11.583,13.002,-26.636Z" /></g><g id="Group 1" transform="matrix(1,0,0,1,12.479,46.136)"><path fill="#00acff" fill-opacity="1" d="M-0.866,-0.793C-0.143,-4.522,0.324,-8.258,0.71,-12.01C0.767,-12.051,0.819,-12.107,0.858,-12.189C3.821,-18.52,8.042,-24.289,10.547,-30.834C10.778,-31.438,9.811,-31.695,9.583,-31.1C7.373,-25.326,3.797,-20.159,0.972,-14.665C1.107,-16.085,1.236,-17.507,1.369,-18.933C1.976,-25.462,3.183,-31.965,6.778,-37.566C7.127,-38.11,6.261,-38.611,5.914,-38.07C-0.709,-27.75,0.545,-14.582,-1.48,-2.958C-1.648,-1.992,-1.847,-1.035,-2.059,-0.081C-2.61,-3.562,-4.081,-6.842,-4.369,-10.385C-4.421,-11.022,-5.421,-11.028,-5.369,-10.385C-5.026,-6.161,-2.983,-2.307,-2.848,1.947C-2.842,2.132,-2.752,2.258,-2.632,2.337C-3.838,7.138,-5.356,11.854,-6.25,16.734C-7.538,23.769,-8.951,30.765,-10.626,37.719C-10.778,38.346,-9.813,38.611,-9.663,37.984C-8.059,31.333,-6.646,24.642,-5.432,17.908C-4.291,11.574,-2.091,5.519,-0.866,-0.793Z" /></g></g></g></g></g><g opacity="0" id="Leaf 4"><animate repeatCount="indefinite" attributeName="opacity" dur="1.3333333333333333s" begin="2.4624s" calcMode="spline" values="0; 1" keyTimes="0; 1" keySplines="0.333 0 0 1" fill="freeze" /><g transform="translate(545.107,498.919)"><animateTransform repeatCount="indefinite" type="translate" attributeName="transform" dur="1.333s" begin="2.462s" calcMode="spline" values="545.107 498.919; 545.107 448.919" keyTimes="0; 1" keySplines="0.333 0 0 1" fill="freeze" /><g transform="rotate(0)"><animateTransform repeatCount="indefinite" type="rotate" attributeName="transform" dur="3s" begin="2.462s" calcMode="spline" values="0; -10; 0" keyTimes="0; 0.5; 1" keySplines="0.333 0 0.667 1; 0.333 0 0.667 1" fill="freeze" /><g transform="scale(1,1) translate(-55.144,-38.012)"><g id="Group 2" transform="matrix(1,0,0,1,27.828,19.198)"><path fill="#00acff" fill-opacity="1" d="M20.553,17.833C18.334,17.3,16.83,14.875,15.547,13.171C14.326,11.55,12.942,10.131,11.56,8.647C8.252,5.099,5.009,1.534,0.466,-0.404C-7.562,-3.827,-17.082,-3.575,-25.461,-1.392C-17.625,-10.301,-6.622,-18.948,5.936,-14.635C11.328,-12.782,15.198,-7.83,18.224,-3.259C21.199,1.233,23.544,6.102,26.375,10.68C26.713,11.228,27.578,10.726,27.239,10.176C21.575,1.017,17.058,-11.408,6.202,-15.6C0.425,-17.829,-6.556,-16.562,-11.979,-13.988C-18.1,-11.083,-22.965,-5.916,-27.271,-0.823C-27.578,-0.461,-27.298,0.163,-26.785,0.013C-17.515,-2.719,-5.877,-3.283,2.715,1.842C6.819,4.289,10.031,8.445,13.267,11.892C15.407,14.17,16.976,18.002,20.287,18.798C20.914,18.948,21.18,17.984,20.553,17.833Z" /></g><g id="Group 1" transform="matrix(1,0,0,1,40.456,23.744)"><path fill="#00acff" fill-opacity="1" d="M14.179,12.144C13.344,12.231,10.639,7.871,10.234,7.334C8.553,5.115,6.924,2.854,5.211,0.659C0.371,-5.543,-6.927,-9.349,-13.745,-12.961C-14.314,-13.263,-14.82,-12.4,-14.25,-12.098C-6.841,-8.172,0.397,-4.074,5.532,2.713C7.355,5.123,9.133,7.565,10.987,9.951C11.532,10.652,13.042,13.263,14.179,13.144C14.814,13.078,14.82,12.077,14.179,12.144Z" /></g></g></g></g></g><g opacity="0" id="Leaf 5"><animate repeatCount="indefinite" attributeName="opacity" dur="1.3333333333333333s" begin="2.4624s" calcMode="spline" values="0; 1" keyTimes="0; 1" keySplines="0.333 0 0 1" fill="freeze" /><g transform="translate(555.85,498.154)"><animateTransform repeatCount="indefinite" type="translate" attributeName="transform" dur="1.333s" begin="2.462s" calcMode="spline" values="555.85 498.154; 555.85 448.154" keyTimes="0; 1" keySplines="0.333 0 0 1" fill="freeze" /><g transform="rotate(0)"><animateTransform repeatCount="indefinite" type="rotate" attributeName="transform" dur="3s" begin="2.462s" calcMode="spline" values="0; -3; 0" keyTimes="0; 0.5; 1" keySplines="0.333 0 0.667 1; 0.333 0 0.667 1" fill="freeze" /><g transform="scale(1,1) translate(-41.393,-72.325)"><g id="Group 2" transform="matrix(1,0,0,1,20.67,32.46)"><path fill="#00acff" fill-opacity="1" d="M8.842,18.718C4.527,14.034,-1.041,10.95,-4.857,5.766C-8.6,0.68,-11.756,-5.037,-14.86,-10.527C-16.687,-13.76,-18.167,-17.028,-18.777,-20.709C-19.33,-24.041,-19.233,-27.49,-19.009,-30.856C-16.938,-29.791,-15.316,-28.161,-13.559,-26.629C-11.623,-24.939,-9.343,-23.654,-7.272,-22.138C-2.436,-18.598,1.899,-13.947,5.424,-9.127C8.696,-4.653,10.993,0.622,13.21,5.674C15.119,10.023,16.673,14.984,19.476,18.86L19.506,18.852C19.811,18.724,20.115,18.595,20.42,18.467C17.411,14.363,15.757,9.004,13.716,4.354C11.362,-1.011,8.781,-6.359,5.235,-11.047C2.031,-15.28,-1.889,-19.245,-6.098,-22.486C-8.506,-24.341,-11.158,-25.858,-13.452,-27.859C-15.291,-29.463,-16.929,-31.084,-19.205,-32.057C-19.561,-32.21,-19.928,-32.033,-19.957,-31.626C-20.42,-25.185,-20.166,-19.042,-17.361,-13.14C-14.477,-7.076,-10.672,-1.243,-7.016,4.384C-5.461,6.78,-3.694,9.006,-1.638,10.99C0.614,13.165,3.293,14.875,5.629,16.966C10.169,21.032,13.417,26.025,15.75,31.624C15.994,32.21,16.963,31.953,16.715,31.359C14.771,26.693,12.275,22.445,8.842,18.718Z" /></g><g id="Group 1" transform="matrix(1,0,0,1,28.572,46.2)"><path fill="#00acff" fill-opacity="1" d="M11.861,11.581C10.229,6.89,7.487,2.407,4.969,-1.855C-0.051,-10.353,-7.99,-16.707,-12.279,-25.704C-12.556,-26.286,-13.417,-25.779,-13.141,-25.201C-9.092,-16.706,-1.909,-10.433,3.26,-2.689C5.828,1.158,8.063,5.461,10,9.655C12.382,14.815,11.626,20.129,11.586,25.641C11.581,26.286,12.581,26.285,12.586,25.641C12.62,20.982,13.418,16.056,11.861,11.581Z" /></g></g></g></g></g><g opacity="0" id="Leaf 6"><animate repeatCount="indefinite" attributeName="opacity" dur="1.3333333333333333s" begin="2.4624s" calcMode="spline" values="0; 1" keyTimes="0; 1" keySplines="0.333 0 0 1" fill="freeze" /><g transform="translate(558.35,503.042)"><animateTransform repeatCount="indefinite" type="translate" attributeName="transform" dur="1.333s" begin="2.462s" calcMode="spline" values="558.35 503.042; 558.35 453.042" keyTimes="0; 1" keySplines="0.333 0 0 1" fill="freeze" /><g transform="rotate(0)"><animateTransform repeatCount="indefinite" type="rotate" attributeName="transform" dur="3s" begin="2.462s" calcMode="spline" values="0; 3; 0" keyTimes="0; 0.5; 1" keySplines="0.333 0 0.667 1; 0.333 0 0.667 1" fill="freeze" /><g transform="scale(1,1) translate(-9.233,-86.612)"><g id="Group 2" transform="matrix(1,0,0,1,9.151,35.551)"><path fill="#00acff" fill-opacity="1" d="M7.544,-0.728C6.396,-7.085,5.09,-13.53,2.855,-19.607C1.886,-22.242,0.98,-24.823,0.39,-27.574C-0.155,-30.117,-0.384,-32.616,-1.593,-34.962C-1.768,-35.302,-2.273,-35.273,-2.456,-34.962C-7.016,-27.197,-7.673,-17.098,-8.212,-8.294C-8.901,2.955,-7.356,14.523,-3.635,25.16C-3.33,25.032,-3.025,24.903,-2.721,24.775L-2.712,24.773C-6.207,14.729,-7.612,4.07,-7.292,-6.544C-7.146,-11.377,-6.561,-16.279,-5.824,-21.053C-5.157,-25.366,-4.125,-29.725,-2.058,-33.595C-1.228,-31.59,-0.974,-29.446,-0.574,-27.307C-0.061,-24.556,0.906,-21.95,1.891,-19.34C4.059,-13.592,5.282,-7.439,6.405,-1.415C7.6,4.995,7.88,11.009,6.899,17.469C6.007,23.348,4.384,29.097,3.155,34.911L3.18,34.917C3.484,35.044,3.789,35.173,4.094,35.301C5.386,29.152,7.052,23.083,7.996,16.864C8.901,10.902,8.611,5.179,7.544,-0.728Z" /></g><g id="Group 1" transform="matrix(1,0,0,1,8.971,57.398)"><path fill="#00acff" fill-opacity="1" d="M0.536,-28.757C0.524,-29.402,-0.476,-29.403,-0.464,-28.757C-0.382,-24.351,0.815,-20.118,1.331,-15.762C1.948,-10.542,1.447,-5.133,0.68,0.04C-0.66,9.07,-0.144,18.226,-2.323,27.132C-2.533,27.171,-2.719,27.321,-2.719,27.597L-2.719,28.725C-2.719,29.293,-1.891,29.402,-1.737,28.858C0.801,19.805,0.584,10.337,1.56,1.055C2.09,-3.971,2.719,-8.859,2.474,-13.934C2.234,-18.934,0.63,-23.74,0.536,-28.757Z" /></g></g></g></g></g><g opacity="0" id="Leaf 7"><animate repeatCount="indefinite" attributeName="opacity" dur="1.3333333333333333s" begin="2.4624s" calcMode="spline" values="0; 1" keyTimes="0; 1" keySplines="0.333 0 0 1" fill="freeze" /><g transform="translate(556.106,493.681)"><animateTransform repeatCount="indefinite" type="translate" attributeName="transform" dur="1.333s" begin="2.462s" calcMode="spline" values="556.106 493.681; 556.106 443.681" keyTimes="0; 1" keySplines="0.333 0 0 1" fill="freeze" /><g transform="rotate(0)"><animateTransform repeatCount="indefinite" type="rotate" attributeName="transform" dur="3s" begin="2.462s" calcMode="spline" values="0; 10; 0" keyTimes="0; 0.5; 1" keySplines="0.333 0 0.667 1; 0.333 0 0.667 1" fill="freeze" /><g transform="scale(1,1) translate(-0.577,-52.893)"><g id="Group 2" transform="matrix(1,0,0,1,29.414,26.718)"><path fill="#00acff" fill-opacity="1" d="M0.334,-20.588C-5.632,-18.128,-9.828,-13.752,-12.715,-7.992C-14.714,-4.006,-15.716,0.348,-17.128,4.551C-18.844,9.659,-21.099,14.572,-23.494,19.392C-23.189,19.52,-22.885,19.649,-22.58,19.777L-22.574,19.78C-20.827,16.26,-19.187,12.693,-17.725,9.044C-16.113,5.023,-15.047,0.847,-13.623,-3.235C-11.386,-9.647,-7.567,-15.476,-1.442,-18.671C5.687,-22.39,21.734,-26.087,24.355,-15.333C13.729,-19.081,5.378,-9.09,-0.024,-1.079C-3.788,4.502,-7.686,9.757,-11.983,14.952C-13.689,17.015,-15.218,19.556,-17.205,21.346C-18.978,22.943,-22.427,25.391,-24.941,25.155C-25.584,25.095,-25.578,26.096,-24.941,26.155C-21.607,26.468,-16.987,23.086,-15.131,20.523C-11.341,15.292,-6.841,10.612,-3.05,5.377C3.196,-3.246,11.459,-19.751,24.775,-14.114C25.193,-13.937,25.583,-14.221,25.51,-14.679C23.612,-26.468,8.19,-23.827,0.334,-20.588Z" /></g><g id="Group 1" transform="matrix(1,0,0,1,17.975,31.666)"><path fill="#00acff" fill-opacity="1" d="M-1.625,3.355C3.014,-5.279,8.727,-14.839,17.181,-20.188C17.725,-20.532,17.224,-21.397,16.678,-21.051C9.029,-16.212,3.474,-7.848,-0.89,-0.085C-5.088,7.384,-8.78,16.59,-17.137,20.275C-17.726,20.535,-17.216,21.397,-16.632,21.139C-9.195,17.861,-5.278,10.155,-1.625,3.355Z" /></g></g></g></g></g><g id="Body"><g transform="translate(397.652,422.37)"><animateTransform repeatCount="indefinite" type="translate" attributeName="transform" dur="1.333s" begin="2.462s" calcMode="spline" values="397.652 422.37; 397.652 322.37" keyTimes="0; 1" keySplines="0.333 0 0 1" fill="freeze" /><g transform="scale(1,1) translate(-85.475,-67.801)"><g id="Head"><g transform="translate(88.034,12.5)"><g transform="rotate(2)"><animateTransform repeatCount="indefinite" type="rotate" attributeName="transform" dur="3s" begin="2.462s" calcMode="spline" values="2; -5; 2" keyTimes="0; 0.5; 1" keySplines="0.333 0 0.667 1; 0.333 0 0.667 1" fill="freeze" /><g transform="scale(1,1) translate(-37.589,-87.505)"><g opacity="0" id="Hair"><animate repeatCount="indefinite" attributeName="opacity" dur="1.3333333333333333s" begin="2.4624s" calcMode="spline" values="0; 1" keyTimes="0; 1" keySplines="0.333 0 0 1" fill="freeze" /><g transform="translate(18.526,28.598) scale(1,1) translate(-21.86,-1.318)"><g id="Group 2" transform="matrix(1,0,0,1,12.863,31.034)"><path fill="#0064b6" fill-opacity="1" d="M9.635,3.342C9.635,8.663,5.323,12.978,0.001,12.978C-5.32,12.978,-9.635,8.663,-9.635,3.342L-9.635,-3.344C-9.635,-8.664,-5.32,-12.978,0.001,-12.978C5.323,-12.978,9.635,-8.664,9.635,-3.344L9.635,3.342Z" /></g><g id="Group 1" transform="matrix(1,0,0,1,20.82,37.354)"><path fill="#1a1a1a" fill-opacity="1" d="M-4.919,-36.023C-13.087,-30.427,-17.981,-21.114,-13.841,-11.853C-9.701,-2.588,-8.527,1.492,-12.543,8.739C-18.191,18.933,-20.571,28.45,-16.322,37.104C9.297,33.566,20.57,30.685,20.57,30.685C20.57,30.685,10.666,-37.104,-4.919,-36.023Z" /></g></g></g></g></g></g></g></g></g></g><g opacity="0" id="Body"><animate repeatCount="indefinite" attributeName="opacity" dur="1.3333333333333333s" begin="2.4624s" calcMode="spline" values="0; 1" keyTimes="0; 1" keySplines="0.333 0 0 1" fill="freeze" /><g transform="translate(397.652,422.37)"><animateTransform repeatCount="indefinite" type="translate" attributeName="transform" dur="1.333s" begin="2.462s" calcMode="spline" values="397.652 422.37; 397.652 322.37" keyTimes="0; 1" keySplines="0.333 0 0 1" fill="freeze" /><g transform="scale(1,1) translate(-85.475,-67.801)"><g id="Group 17" transform="matrix(1,0,0,1,89.762,77.833)"><path fill="#0064b6" fill-opacity="1" d="M-61.935,48.37C-56.479,48.37,-32.148,30.084,-27.134,30.673C-24.628,44.093,-24.33,51.171,-24.036,52.057C-23.74,52.94,-60.461,59.429,-61.935,48.37ZM78.01,14.01C75.354,1.031,63.854,-34.065,35.836,-46.747C7.815,-59.43,-18.436,-49.107,-28.167,-43.21C-37.9,-37.312,-49.106,-14.304,-54.12,7.225C-59.135,28.756,-76.241,28.462,-89.513,33.18L-83.319,55.596L53.531,56.479L53.826,52.94C89.513,50.876,80.666,26.985,78.01,14.01Z" /></g><g id="Group 16" transform="matrix(1,0,0,1,87.157,87.518)"><path fill="#d9f4ff" fill-opacity="1" d="M-10.716,-46.697C-12.485,-38.244,-19.76,13.47,-7.371,47.486C2.261,48.271,16.615,47.486,16.615,47.486C13.863,29.592,8.357,-19.959,19.76,-48.271C8.357,-48.076,-10.716,-46.697,-10.716,-46.697Z" /></g><g id="Group 15" transform="matrix(1,0,0,1,93.645,36.887)"><path fill="#d9f4ff" fill-opacity="1" d="M-10.912,-11.406C-20.644,-10.813,-22.906,-0.294,-18.481,6.194C-14.058,12.682,-5.703,7.371,-4.227,4.129C6.293,14.058,19.958,5.112,22.906,-9.635C22.906,-10.813,6.195,-14.058,-10.912,-11.406Z" /></g><g id="Group 14" transform="matrix(1,0,0,1,93.167,19.996)"><path fill="#fec5c4" fill-opacity="1" d="M7.874,-19.746C7.874,-19.746,14.209,-0.653,14.81,7.414C15.355,14.81,-9.119,19.746,-10.855,11.992C-12.665,2.767,-15.355,-12.918,-15.355,-12.918" /></g><g id="Group 13" transform="matrix(1,0,0,1,90.443,9.337)"><path fill="#e8b8b7" fill-opacity="1" d="M12.632,-1.114L10.597,-9.087L-12.632,-2.258C-12.632,-2.258,-11.803,2.56,-10.743,8.6C-9.017,8.928,-7.237,9.087,-5.402,9.003C2.16,8.669,8.689,4.704,12.632,-1.114Z" /></g><g id="Group 12" transform="matrix(1,0,0,1,55.404,116.027)"><path fill="#fec5c4" fill-opacity="1" d="M14.548,-10.913C3.343,-9.931,-0.983,-6.587,-11.012,-1.277C-21.039,4.031,-23.202,5.212,-20.843,6.195C-26.741,6.588,-23.302,9.732,-19.172,8.355C-21.923,9.535,-18.09,10.815,-12.585,8.749C-11.208,10.912,-4.129,9.932,0.393,7.374C4.915,4.817,15.73,2.653,25.56,5.997C26.741,-0.098,23.005,-10.715,23.005,-10.715L14.548,-10.913Z" /></g><g id="Group 11" transform="matrix(1,0,0,1,93.867,114.749)"><path fill="#0064b6" fill-opacity="1" d="M-16.787,-9.487C-10.741,-10.813,6.169,-12.192,16.197,-11.6C16.787,-3.736,12.462,12.191,12.462,12.191L-14.281,6.29C-14.281,6.29,-12.95,-2.114,-16.787,-9.487Z" /></g><g id="Group 10" transform="matrix(1,0,0,1,111.725,103.062)"><path fill="#1a1a1a" fill-opacity="1" d="M-35.151,2.34C-23.211,0.614,-11.136,0.648,0.897,0.309C6.694,0.145,12.253,-0.528,17.997,-1.185C23.457,-1.809,29.923,-0.625,35.172,0.964C35.791,1.151,36.053,0.186,35.438,-0.001C30.592,-1.467,24.918,-2.431,19.844,-2.321C17.329,-2.267,14.809,-1.752,12.329,-1.382C8.878,-0.867,5.362,-0.834,1.88,-0.722C-10.576,-0.318,-23.053,-0.411,-35.417,1.375C-36.053,1.467,-35.782,2.431,-35.151,2.34Z" /></g><g id="Group 9" transform="matrix(1,0,0,1,131.168,87.159)"><path fill="#1a1a1a" fill-opacity="1" d="M-1.334,-12.39C-0.196,-4.085,0.396,4.265,0.419,12.647C0.421,13.292,1.421,13.292,1.419,12.647C1.396,4.173,0.78,-4.261,-0.369,-12.656C-0.457,-13.292,-1.42,-13.02,-1.334,-12.39Z" /></g><g id="Group 8" transform="matrix(1,0,0,1,122.731,126.552)"><path fill="#1a1a1a" fill-opacity="1" d="M-43.931,-5.012C-40.316,-5.055,-36.966,-3.452,-33.536,-2.522C-29.461,-1.416,-25.471,-0.032,-21.399,1.086C-13.166,3.342,-4.607,4.776,3.916,5.268C17.475,6.052,33.881,5.387,44.119,-4.764C44.577,-5.218,43.87,-5.925,43.412,-5.471C32.711,5.139,15.123,5.152,1.08,4.079C-7.32,3.436,-15.741,1.723,-23.819,-0.639C-27.448,-1.7,-31.069,-2.811,-34.692,-3.893C-37.742,-4.804,-40.696,-6.051,-43.931,-6.012C-44.576,-6.004,-44.577,-5.004,-43.931,-5.012Z" /></g><g id="Group 7" transform="matrix(1,0,0,1,60.093,85.209)"><path fill="#1a1a1a" fill-opacity="1" d="M-1.241,-20.73C-2.135,-18.047,-1.868,-15.162,-1.829,-12.375C-1.775,-8.54,-1.493,-4.711,-1.293,-0.883C-1.096,2.898,-0.982,6.681,-0.678,10.456C-0.398,13.94,0.92,17.243,1.101,20.694C1.135,21.335,2.135,21.338,2.101,20.694C1.935,17.538,0.725,14.552,0.407,11.397C0.058,7.944,-0.051,4.466,-0.204,1C-0.359,-2.495,-0.598,-5.985,-0.744,-9.48C-0.889,-12.978,-1.397,-17.101,-0.277,-20.464C-0.073,-21.078,-1.038,-21.338,-1.241,-20.73Z" /></g><g id="Group 6" transform="matrix(1,0,0,1,93.591,40.148)"><path fill="#1a1a1a" fill-opacity="1" d="M-19.598,-9.884C-21.167,-4.349,-22.272,2.716,-16.065,5.828C-13.827,6.95,-11.277,6.394,-9.118,5.416C-7.6,4.728,-6.279,3.567,-5.025,2.492C-3.757,1.405,-3.2,3.054,-2.078,3.855C7.042,10.378,19.048,1.346,22.068,-7.652C22.273,-8.265,21.307,-8.526,21.103,-7.917C17.881,1.684,4.108,10.503,-3.82,0.711C-3.997,0.491,-4.341,0.544,-4.527,0.711C-7.815,3.667,-12.091,7.167,-16.576,4.397C-21.464,1.379,-19.899,-5.156,-18.633,-9.618C-18.457,-10.24,-19.422,-10.503,-19.598,-9.884Z" /></g><g id="Group 5" transform="matrix(1,0,0,1,87.269,49.146)"><path fill="#1a1a1a" fill-opacity="1" d="M-1.972,0.212C-1.636,1.987,0.876,1.926,1.688,0.554C2.139,-0.208,1.649,-1.106,0.953,-1.502C0.1,-1.987,-1.188,-1.904,-1.772,-1.059C-2.139,-0.526,-1.272,-0.027,-0.909,-0.555C-0.468,-1.191,1.371,-0.526,0.724,0.189C0.233,0.732,-0.851,0.774,-1.007,-0.054C-1.127,-0.686,-2.091,-0.418,-1.972,0.212Z" /></g><g id="Group 4" transform="matrix(1,0,0,1,85.799,57.101)"><path fill="#1a1a1a" fill-opacity="1" d="M-1.827,-0.343C-2.082,1.426,-0.031,1.924,1.158,0.939C1.766,0.437,2.082,-0.53,1.57,-1.214C1.038,-1.925,0.005,-1.81,-0.741,-1.574C-1.353,-1.381,-1.091,-0.415,-0.474,-0.61C-0.101,-0.728,0.385,-0.867,0.747,-0.653C1.057,-0.47,0.643,0.088,0.477,0.21C0.111,0.476,-0.971,0.674,-0.862,-0.077C-0.771,-0.708,-1.735,-0.98,-1.827,-0.343Z" /></g><g id="Group 3" transform="matrix(1,0,0,1,85.202,65.746)"><path fill="#1a1a1a" fill-opacity="1" d="M-1.838,0.583C-1.75,2.589,1.209,1.789,1.506,0.273C1.867,-1.576,-1.359,-2.59,-1.674,-0.582C-1.773,0.049,-0.809,0.319,-0.709,-0.316C-0.588,-1.089,0.515,-0.56,0.529,0.04C0.54,0.513,-0.813,1.155,-0.838,0.583C-0.866,-0.06,-1.866,-0.062,-1.838,0.583Z" /></g><g id="Group 2" transform="matrix(1,0,0,1,64.729,123.293)"><path fill="#1a1a1a" fill-opacity="1" d="M-0.831,-2.254C-0.98,-0.779,-0.772,0.925,-0.224,2.305C0.012,2.896,0.981,2.639,0.742,2.039C0.219,0.724,0.026,-0.848,0.169,-2.254C0.234,-2.896,-0.767,-2.889,-0.831,-2.254Z" /></g><g id="Group 1" transform="matrix(1,0,0,1,78.513,112.752)"><path fill="#1a1a1a" fill-opacity="1" d="M-2.126,-7.206C-0.261,-5.894,-0.112,-3.293,0.415,-1.268C1.114,1.41,1.633,4.733,0.447,7.35C0.183,7.932,1.045,8.441,1.311,7.855C2.649,4.902,2.091,1.521,1.38,-1.535C0.828,-3.903,0.501,-6.576,-1.622,-8.068C-2.15,-8.44,-2.649,-7.573,-2.126,-7.206Z" /></g></g></g></g><g id="Body"><g transform="translate(397.652,422.37)"><animateTransform repeatCount="indefinite" type="translate" attributeName="transform" dur="1.333s" begin="2.462s" calcMode="spline" values="397.652 422.37; 397.652 322.37" keyTimes="0; 1" keySplines="0.333 0 0 1" fill="freeze" /><g transform="scale(1,1) translate(-85.475,-67.801)"><g opacity="0" id="Head"><animate repeatCount="indefinite" attributeName="opacity" dur="1.3333333333333333s" begin="2.4624s" calcMode="spline" values="0; 1" keyTimes="0; 1" keySplines="0.333 0 0 1" fill="freeze" /><g transform="translate(88.034,12.5)"><g transform="rotate(2)"><animateTransform repeatCount="indefinite" type="rotate" attributeName="transform" dur="3s" begin="2.462s" calcMode="spline" values="2; -5; 2" keyTimes="0; 0.5; 1" keySplines="0.333 0 0.667 1; 0.333 0 0.667 1" fill="freeze" /><g transform="scale(1,1) translate(-37.589,-87.505)"><g id="Group 16" transform="matrix(1,0,0,1,33.224,31.902)"><path fill="#0064b6" fill-opacity="1" d="M26.789,15.276C26.346,5.462,16.269,-13.264,-7.62,-12.206C-24.627,-10.898,-26.692,5.212,-26.692,5.212C-27.283,7.02,-30.33,10.846,-30.33,10.846C-31.214,3.297,-26.441,-16.705,-4.965,-17.242C19.219,-17.845,30.768,1.082,31.214,14.673C29.295,17.844,26.789,15.276,26.789,15.276Z" /></g><g id="Group 15" transform="matrix(1,0,0,1,32.462,52.779)"><path fill="#fec5c4" fill-opacity="1" d="M-22.473,13.199C-21.906,25.914,-11.138,35.757,1.57,35.189C14.282,34.622,24.129,23.858,23.561,11.142L22.473,-13.198C21.906,-25.911,11.137,-35.758,-1.573,-35.188C-14.285,-34.62,-24.129,-23.855,-23.561,-11.142L-22.473,13.199Z" /></g><g id="Group 14" transform="matrix(1,0,0,1,35.507,40.791)"><path fill="#4a3b31" fill-opacity="1" d="M4.888,-0.016C1.981,-1.578,-1.839,-2.302,-4.879,-0.734C-6.015,-0.147,-5.012,1.565,-3.877,0.979C-1.508,-0.243,1.645,0.493,3.886,1.697C5.013,2.302,6.015,0.589,4.888,-0.016Z" /></g><g id="Group 13" transform="matrix(1,0,0,1,14.923,42.511)"><path fill="#4a3b31" fill-opacity="1" d="M-2.31,1.478C-0.936,0.177,1.031,-0.298,2.862,0.078C4.111,0.334,4.644,-1.579,3.391,-1.835C0.848,-2.357,-1.806,-1.733,-3.714,0.075C-4.644,0.957,-3.238,2.357,-2.31,1.478Z" /></g><g id="Group 12" transform="matrix(1,0,0,1,24.156,57.689)"><path fill="#4a3b31" fill-opacity="1" d="M2.185,4.052C2.008,4.052,1.831,3.99,1.689,3.865L-2.799,-0.088C-2.981,-0.249,-3.075,-0.488,-3.049,-0.73C-3.024,-0.971,-2.883,-1.186,-2.672,-1.305L1.85,-3.85C2.213,-4.052,2.669,-3.924,2.871,-3.564C3.075,-3.203,2.947,-2.745,2.586,-2.542L-1.016,-0.516L2.68,2.739C2.991,3.013,3.021,3.487,2.746,3.798C2.599,3.966,2.393,4.052,2.185,4.052Z" /></g><g id="Group 11" transform="matrix(1,0,0,1,29.032,64.89)"><path fill="#4a3b31" fill-opacity="1" d="M-1.028,3.214C-2.237,3.214,-3.426,2.895,-4.353,2.262C-4.695,2.028,-4.783,1.562,-4.549,1.22C-4.317,0.879,-3.85,0.791,-3.507,1.023C-2.234,1.894,-0.092,1.936,1.368,1.122C2.248,0.631,3.278,-0.379,3.185,-2.407C3.165,-2.821,3.486,-3.172,3.9,-3.19C4.306,-3.214,4.663,-2.89,4.683,-2.475C4.783,-0.296,3.865,1.447,2.099,2.432C1.161,2.955,0.059,3.214,-1.028,3.214Z" /></g><g><g transform="translate(34.002,52.45)"><g id="Group 10" transform="scale(1,1)"><animateTransform repeatCount="indefinite" type="scale" attributeName="transform" dur="0.333s" begin="4.129s" calcMode="spline" values="1 1; 1 0; 1 1" keyTimes="0; 0.5; 1" keySplines="0 0 1 1; 0 0 1 1" fill="freeze" /><path fill="#2f2d34" fill-opacity="1" d="M-2.621,0.99C-2.074,2.436,-0.458,3.168,0.988,2.62C2.432,2.075,3.166,0.46,2.616,-0.988C2.069,-2.437,0.455,-3.167,-0.992,-2.62C-2.439,-2.073,-3.166,-0.458,-2.621,0.99Z" /></g></g></g><g><g transform="translate(17.257,53.455)"><g id="Group 9" transform="scale(1,1)"><animateTransform repeatCount="indefinite" type="scale" attributeName="transform" dur="0.333s" begin="4.129s" calcMode="spline" values="1 1; 1 0; 1 1" keyTimes="0; 0.5; 1" keySplines="0 0 1 1; 0 0 1 1" fill="freeze" /><path fill="#2f2d34" fill-opacity="1" d="M-2.621,0.987C-2.074,2.431,-0.458,3.167,0.989,2.619C2.434,2.074,3.167,0.454,2.62,-0.993C2.072,-2.44,0.458,-3.167,-0.988,-2.619C-2.435,-2.075,-3.167,-0.46,-2.621,0.987Z" /></g></g></g><g id="Group 6" transform="matrix(1,0,0,1,50.774,49.127)"><path fill="#1a1a1a" fill-opacity="1" d="M27.159,16.997C23.338,8.764,28.055,3.653,26.021,-4.191C24.238,-11.053,16.072,-10.841,11.86,-20.56C5.406,-35.462,-27.801,-48.878,-40.183,-18.638C-26.418,-27.971,-12.31,-23.119,-6.954,-16.22C3.845,-2.306,-7.237,3.59,-3.069,11.864C-0.031,17.893,1.96,21.953,-1.965,31.077C-5.89,40.2,-0.395,48.878,-0.395,48.878C12.457,47.455,26.984,46.191,40.183,43.956C40.183,21.688,30.977,25.23,27.159,16.997Z" /></g><g id="Group 5" transform="matrix(1,0,0,1,12.906,72.953)"><path fill="#ffffff" fill-opacity="1" d="M-11.085,-5.532C-12.656,6.131,4.573,6.169,12.011,5.815C12.653,5.784,12.656,4.784,12.011,4.815C5.446,5.127,-11.564,5.443,-10.121,-5.266C-10.036,-5.897,-11,-6.169,-11.085,-5.532Z" /></g><g id="Group 4" transform="matrix(1,0,0,1,27.031,78.12)"><path fill="#0064b6" fill-opacity="1" d="M3.686,0.001C3.686,1.656,2.035,2.999,-0.002,2.999C-2.037,2.999,-3.686,1.656,-3.686,0.001C-3.686,-1.655,-2.037,-2.999,-0.002,-2.999C2.035,-2.999,3.686,-1.655,3.686,0.001Z" /></g><g id="Group 17" transform="matrix(1,0,0,1,0,0)"><g id="Group 3" transform="matrix(1,0,0,1,35.103,31.902)"><path fill="#0064b6" fill-opacity="1" d="M-6.844,-17.241C-19.095,-16.933,-25.905,-10.297,-29.335,-3.248C-28.167,-3.119,-26.904,-2.776,-25.853,-2.279C-23.314,-6.678,-18.499,-11.513,-9.5,-12.207C14.389,-13.264,24.467,5.462,24.91,15.277C24.91,15.277,27.416,17.845,29.335,14.674C28.889,1.082,17.34,-17.845,-6.844,-17.241Z" /></g><g id="Group 2" transform="matrix(1,0,0,1,62.569,58.313)"><path fill="#0064b6" fill-opacity="1" d="M9.635,3.342C9.635,8.663,5.321,12.978,0.001,12.978C-5.323,12.978,-9.635,8.663,-9.635,3.342L-9.635,-3.344C-9.635,-8.664,-5.323,-12.978,0.001,-12.978C5.321,-12.978,9.635,-8.664,9.635,-3.344L9.635,3.342Z" /></g><g id="Group 1" transform="matrix(1,0,0,1,64.118,58.409)"><path fill="#ffffff" fill-opacity="1" d="M5.817,2.217C5.466,8.721,-3.262,10.21,-5.658,4.104C-6.372,2.281,-5.964,-0.3,-5.964,-2.219C-5.964,-8.873,3.186,-10.022,5.508,-4.105C6.223,-2.283,5.817,0.299,5.817,2.217C5.817,2.862,6.817,2.862,6.817,2.217C6.817,-1.796,7.209,-5.667,3.403,-8.166C-1.207,-11.195,-6.7,-7.13,-6.964,-2.219C-7.177,1.728,-7.21,5.764,-3.553,8.166C1.058,11.195,6.552,7.129,6.817,2.217C6.852,1.572,5.851,1.576,5.817,2.217Z" /></g></g></g></g></g></g></g></g></g><g opacity="0" visibility="hidden" id="Pc"><animate repeatCount="indefinite" begin="2.629s" calcMode="discrete" fill="freeze" dur="6s" values="visible; visible" keyTimes="0; 1" attributeName="visibility" /><animate repeatCount="indefinite" attributeName="opacity" dur="1.3333333333333333s" begin="2.6290666666666667s" calcMode="spline" values="0; 1" keyTimes="0; 1" keySplines="0.333 0 0 1" fill="freeze" /><g transform="translate(292.92,439.825)"><animateTransform repeatCount="indefinite" type="translate" attributeName="transform" dur="1.333s" begin="2.629s" calcMode="spline" values="292.92 439.825; 292.92 339.825" keyTimes="0; 1" keySplines="0.333 0 0 1" fill="freeze" /><g transform="scale(1,1) translate(-108.252,-47.637)"><g id="Group 3" transform="matrix(1,0,0,1,108.295,47.637)"><path fill="#1a1a1a" fill-opacity="1" d="M26.838,40.307L103.717,40.307C107.257,40.307,108.044,47.387,102.145,47.387L-74.226,47.387C-79.536,36.769,-103.327,-28.119,-105.686,-34.214C-108.045,-40.308,-105.882,-47.387,-96.247,-47.387L-28.609,-47.387C-21.532,-47.387,-13.666,-46.21,-8.751,-35.393C-3.835,-24.578,26.838,40.307,26.838,40.307Z" /></g><g id="Group 2" transform="matrix(1,0,0,1,144.678,47.637)"><path fill="#1a1a1a" fill-opacity="1" d="M67.577,47.105C67.808,47.024,68.017,46.926,68.213,46.822C68.232,46.813,68.251,46.805,68.266,46.794C71.286,45.103,70.25,40.307,67.334,40.307L61.041,40.307L-9.547,40.307C-9.547,40.307,-9.571,40.255,-9.607,40.178C-9.642,40.105,-9.69,40.005,-9.756,39.865C-10.029,39.288,-10.562,38.156,-11.315,36.561C-17.912,22.601,-40.933,-26.151,-45.134,-35.394C-50.05,-46.21,-57.915,-47.387,-64.993,-47.387L-71.286,-47.387C-64.207,-47.387,-56.342,-46.21,-51.426,-35.394C-46.512,-24.579,-15.838,40.307,-15.838,40.307L-13.183,47.195C-13.183,47.195,-9.868,47.274,-4.577,47.387L59.47,47.387L65.762,47.387C66.116,47.387,66.441,47.357,66.748,47.309C66.943,47.279,67.118,47.226,67.294,47.176C67.387,47.151,67.489,47.134,67.577,47.105Z" /></g><g id="Group 1" transform="matrix(1,0,0,1,62.579,48.619)"><path stroke-linejoin="miter" stroke-linecap="butt" stroke-width="1" stroke-opacity="1" stroke="#ffffff" d="M8.652,0.003C10.592,4.803,8.293,8.692,3.515,8.692C-1.263,8.692,-6.71,4.803,-8.65,0.003C-10.591,-4.799,-8.291,-8.692,-3.513,-8.692C1.265,-8.692,6.712,-4.799,8.652,0.003Z" /></g></g></g></g><g opacity="0" visibility="hidden" id="Desk"><animate repeatCount="indefinite" begin="2.662s" calcMode="discrete" fill="freeze" dur="6s" values="visible; visible" keyTimes="0; 1" attributeName="visibility" /><animate repeatCount="indefinite" attributeName="opacity" dur="1.3333333333333333s" begin="2.6624s" calcMode="spline" values="0; 1" keyTimes="0; 1" keySplines="0.333 0 0 1" fill="freeze" /><g transform="translate(348.199,517.732)"><animateTransform repeatCount="indefinite" type="translate" attributeName="transform" dur="1.333s" begin="2.662s" calcMode="spline" values="348.199 517.732; 348.199 417.732" keyTimes="0; 1" keySplines="0.333 0 0 1" fill="freeze" /><g transform="scale(1,1) translate(-150.436,-31.128)"><g id="Group 2" transform="matrix(1,0,0,1,150.437,34.269)"><path fill="#d6e2fa" fill-opacity="1" d="M138.676,-28.171L-138.676,-28.171L-138.676,15.795C-108.228,22.277,-67.193,26.961,-26.782,27.472C28.54,28.171,85.905,27.543,138.676,24.976L138.676,-28.171Z" /></g><g id="Group 1" transform="matrix(1,0,0,1,150.436,5.002)"><path fill="#d9f4ff" fill-opacity="1" d="M150.187,0.001C150.187,2.623,148.058,4.752,145.434,4.752L-145.436,4.752C-148.059,4.752,-150.186,2.623,-150.186,0.001C-150.186,-2.623,-148.059,-4.752,-145.436,-4.752L145.434,-4.752C148.058,-4.752,150.187,-2.623,150.187,0.001Z" /></g></g></g></g><g visibility="hidden" id="Customer 1"><animate repeatCount="indefinite" begin="2.996s" calcMode="discrete" fill="freeze" dur="6s" values="visible; visible" keyTimes="0; 1" attributeName="visibility" /><g transform="translate(187.262,229.818)"><animateTransform repeatCount="indefinite" type="translate" attributeName="transform" dur="3s" begin="2.996s" calcMode="spline" values="187.262 229.818; 187.262 239.818; 187.262 229.818" keyTimes="0; 0.5; 1" keySplines="0.333 0 0.667 1; 0.333 0 0.667 1" fill="freeze" /><g transform="scale(0,0)"><animateTransform repeatCount="indefinite" type="scale" attributeName="transform" dur="0.667s" begin="2.996s" calcMode="spline" values="0 0; 1 1" keyTimes="0; 1" keySplines="0.333 0 0 1" fill="freeze" /><g transform="translate(-71.833,-156.291)"><g id="Group 25" transform="matrix(1,0,0,1,51.363,135.735)"><path fill="#6097ff" fill-opacity="1" d="M9.303,13.912C15.896,20.159,21.28,20.159,21.268,13.911C21.254,7.666,21.232,-2.556,21.219,-8.802C21.206,-15.049,15.811,-20.159,9.231,-20.159L-14.699,-20.159C-21.28,-20.159,-21.268,-15.048,-14.676,-8.802C-8.082,-2.555,2.71,7.666,9.303,13.912Z" /></g><g id="Group 24" transform="matrix(1,0,0,1,109.083,63.915)"><path fill="#6097ff" fill-opacity="1" d="M108.833,25.281C108.833,46.479,91.649,63.665,70.451,63.665L-70.451,63.665C-91.649,63.665,-108.833,46.479,-108.833,25.281L-108.833,-25.283C-108.833,-46.48,-91.649,-63.665,-70.451,-63.665L70.451,-63.665C91.649,-63.665,108.833,-46.48,108.833,-25.283L108.833,25.281Z" /></g><g id="Group 23" transform="matrix(1,0,0,1,105.708,32.36)"><path fill="#ffffff" fill-opacity="1" d="M6.602,-7.677L6.602,7.677L4.409,7.677L4.409,0.833L-4.408,0.833L-4.408,7.677L-6.602,7.677L-6.602,-7.677L-4.408,-7.677L-4.408,-1.074L4.409,-1.074L4.409,-7.677L6.602,-7.677Z" /></g><g id="Group 22" transform="matrix(1,0,0,1,122.487,32.36)"><path fill="#ffffff" fill-opacity="1" d="M5.571,5.768L5.571,7.676L-5.571,7.676L-5.571,-7.676L5.264,-7.676L5.264,-5.768L-3.378,-5.768L-3.378,-1.053L4.321,-1.053L4.321,0.811L-3.378,0.811L-3.378,5.768L5.571,5.768Z" /></g><g id="Group 21" transform="matrix(1,0,0,1,136.863,32.36)"><path fill="#ffffff" fill-opacity="1" d="M-5.253,-7.677L-3.06,-7.677L-3.06,5.767L5.253,5.767L5.253,7.677L-5.253,7.677L-5.253,-7.677Z" /></g><g id="Group 20" transform="matrix(1,0,0,1,150.834,32.36)"><path fill="#ffffff" fill-opacity="1" d="M2.906,0.23C3.637,-0.362,4.003,-1.213,4.003,-2.325C4.003,-3.436,3.637,-4.288,2.906,-4.88C2.175,-5.472,1.115,-5.768,-0.274,-5.768L-4.003,-5.768L-4.003,1.119L-0.274,1.119C1.115,1.119,2.175,0.823,2.906,0.23ZM4.485,-6.25C5.626,-5.3,6.196,-3.992,6.196,-2.325C6.196,-0.658,5.626,0.651,4.485,1.601C3.345,2.551,1.78,3.027,-0.208,3.027L-4.003,3.027L-4.003,7.676L-6.196,7.676L-6.196,-7.676L-0.208,-7.676C1.78,-7.676,3.345,-7.201,4.485,-6.25Z" /></g><g id="Group 19" transform="matrix(1,0,0,1,161.109,32.425)"><path fill="#ffffff" fill-opacity="1" d="M-1.228,-7.742L1.25,-7.742L0.834,2.764L-0.833,2.764L-1.228,-7.742ZM-1.009,7.336C-1.287,7.066,-1.426,6.734,-1.426,6.338C-1.426,5.944,-1.287,5.612,-1.009,5.341C-0.731,5.071,-0.388,4.935,0.022,4.935C0.431,4.935,0.768,5.071,1.031,5.341C1.294,5.612,1.426,5.944,1.426,6.338C1.426,6.734,1.29,7.066,1.02,7.336C0.749,7.607,0.417,7.742,0.022,7.742C-0.388,7.742,-0.731,7.607,-1.009,7.336Z" /></g><g id="Group 18" transform="matrix(1,0,0,1,148.206,53.423)"><path fill="#ffffff" fill-opacity="1" d="M49.135,3.195L-49.135,3.195L-49.135,-3.195L49.135,-3.195L49.135,3.195Z" /></g><g id="Group 17" transform="matrix(1,0,0,1,141.501,68.946)"><path fill="#ffffff" fill-opacity="1" d="M42.43,3.195L-42.43,3.195L-42.43,-3.195L42.43,-3.195L42.43,3.195Z" /></g><g id="Group 16" transform="matrix(1,0,0,1,127.215,84.471)"><path fill="#ffffff" fill-opacity="1" d="M28.144,3.195L-28.144,3.195L-28.144,-3.195L28.144,-3.195L28.144,3.195Z" /></g><g id="Group 15" transform="matrix(1,0,0,1,144.59,99.994)"><path fill="#ffffff" fill-opacity="1" d="M45.519,3.196L-45.519,3.196L-45.519,-3.196L45.519,-3.196L45.519,3.196Z" /></g><g id="Group 14" transform="matrix(1,0,0,1,52.586,100.081)"><path fill="#6097ff" fill-opacity="1" d="M26.978,0.739C24.051,-6.532,13.918,-11.728,8.742,-11.658L-8.741,-11.658C-14.488,-11.117,-24.049,-6.532,-26.978,0.739C-20.131,7.516,-10.577,11.729,0.001,11.729C10.579,11.729,20.132,7.516,26.978,0.739Z" /></g><g id="Group 13" transform="matrix(1,0,0,1,52.856,87.9)"><path fill="#fec5c4" fill-opacity="1" d="M-7.41,-14.405C-7.41,-14.405,-9.084,-0.65,-10.24,7.126C-11.084,12.807,9.303,14.405,9.922,8.281C10.463,1.018,11.085,-11.293,11.085,-11.293" /></g><g id="Group 12" transform="matrix(1,0,0,1,54.279,79.935)"><path fill="#ecb9b8" fill-opacity="1" d="M-9.662,-0.119L-8.833,-6.439L9.662,-3.328C9.662,-3.328,9.469,0.454,9.211,5.197C7.913,5.609,6.558,5.896,5.14,6.001C-0.708,6.439,-6.094,3.992,-9.662,-0.119Z" /></g><g id="Group 11" transform="matrix(1,0,0,1,57.321,54.539)"><path fill="#fec5c4" fill-opacity="1" d="M18.501,8.081C19.237,17.912,11.864,26.475,2.035,27.211C-7.793,27.944,-16.358,20.572,-17.093,10.74L-18.501,-8.082C-19.237,-17.909,-11.862,-26.476,-2.034,-27.207C7.796,-27.944,16.36,-20.571,17.095,-10.743L18.501,8.081Z" /></g><g id="Group 10" transform="matrix(1,0,0,1,54.013,45.672)"><path fill="#4a3b31" fill-opacity="1" d="M-2.49,2.753C0.013,2.223,2.021,1.107,3.522,-0.988C4.269,-2.03,2.547,-3.019,1.809,-1.99C0.616,-0.325,-1.058,0.424,-3.018,0.84C-4.27,1.105,-3.738,3.018,-2.49,2.753Z" /></g><g id="Group 9" transform="matrix(1,0,0,1,69.705,43.952)"><path fill="#4a3b31" fill-opacity="1" d="M2.012,0.572C0.611,0.309,-0.25,-0.356,-0.937,-1.6C-1.555,-2.72,-3.269,-1.72,-2.65,-0.598C-1.737,1.054,-0.386,2.134,1.485,2.485C2.735,2.72,3.269,0.808,2.012,0.572Z" /></g><g id="Group 8" transform="matrix(1,0,0,1,63.985,57.743)"><path fill="#4a3b31" fill-opacity="1" d="M-1.199,3.299C-1.377,3.299,-1.555,3.236,-1.699,3.108C-2.007,2.832,-2.034,2.358,-1.758,2.049L0.627,-0.618L-2.11,-1.753C-2.493,-1.912,-2.675,-2.351,-2.516,-2.733C-2.358,-3.117,-1.919,-3.299,-1.536,-3.139L2.177,-1.599C2.402,-1.506,2.567,-1.31,2.621,-1.073C2.675,-0.836,2.611,-0.587,2.449,-0.406L-0.639,3.049C-0.787,3.215,-0.993,3.299,-1.199,3.299Z" /></g><g id="Group 7" transform="matrix(1,0,0,1,61.915,66.483)"><path fill="#4a3b31" fill-opacity="1" d="M-3.637,2.145C-3.872,2.145,-4.104,2.035,-4.25,1.828C-4.489,1.49,-4.409,1.022,-4.071,0.783C-1.117,-1.306,1.533,-2.145,3.815,-1.713C4.222,-1.636,4.489,-1.243,4.412,-0.836C4.334,-0.43,3.943,-0.165,3.535,-0.239C1.674,-0.593,-0.596,0.163,-3.204,2.007C-3.336,2.101,-3.487,2.145,-3.637,2.145Z" /></g><g><g transform="translate(56.107,54.427)"><g id="Group 6" transform="scale(1,1)"><animateTransform repeatCount="indefinite" type="scale" attributeName="transform" dur="0.333s" begin="4.629s" calcMode="spline" values="1 1; 1 0; 1 1" keyTimes="0; 0.5; 1" keySplines="0 0 1 1; 0 0 1 1" fill="freeze" /><path fill="#2f2d34" fill-opacity="1" d="M2.107,0.521C1.82,1.683,0.643,2.394,-0.521,2.108C-1.681,1.821,-2.394,0.645,-2.105,-0.519C-1.819,-1.683,-0.643,-2.394,0.52,-2.105C1.682,-1.82,2.394,-0.642,2.107,0.521Z" /></g></g></g><g><g transform="translate(69.079,53.657)"><g id="Group 5" transform="scale(1,1)"><animateTransform repeatCount="indefinite" type="scale" attributeName="transform" dur="0.333s" begin="4.629s" calcMode="spline" values="1 1; 1 0; 1 1" keyTimes="0; 0.5; 1" keySplines="0 0 1 1; 0 0 1 1" fill="freeze" /><path fill="#2f2d34" fill-opacity="1" d="M2.106,0.518C1.819,1.677,0.645,2.394,-0.52,2.105C-1.682,1.821,-2.394,0.64,-2.107,-0.522C-1.821,-1.684,-0.644,-2.394,0.518,-2.104C1.682,-1.819,2.394,-0.644,2.106,0.518Z" /></g></g></g><g id="Group 4" transform="matrix(1,0,0,1,37.109,61.089)"><path fill="#fec5c4" fill-opacity="1" d="M6.54,-0.535C7.385,2.943,5.251,6.448,1.772,7.291C-1.707,8.137,-5.212,6.004,-6.057,2.525L-6.54,0.536C-7.385,-2.942,-5.251,-6.446,-1.771,-7.292C1.707,-8.137,5.212,-6.002,6.057,-2.524L6.54,-0.535Z" /></g><g id="Group 3" transform="matrix(1,0,0,1,51.387,38.197)"><path fill="#1a1a1a" fill-opacity="1" d="M-17.515,16.248C-19.038,11.909,-26.464,-5.742,-15.421,-6.275C-14.736,-13.205,-5.102,-16.86,6.93,-19.221C18.963,-21.58,26.464,-15.945,25.55,-10.311C24.636,-4.675,17.249,-2.619,11.386,-4.295C9.711,1.797,1.638,-0.257,-0.113,-1.477C-1.466,4.426,-8.168,5.853,-7.405,9.966C-6.643,14.079,-6.302,18.266,-6.149,19.104C-5.997,19.943,-9.499,21.58,-10.261,19.903C-11.023,18.229,-14.031,15.222,-17.515,16.248Z" /></g><g id="Group 2" transform="matrix(1,0,0,1,140.011,120.908)"><path fill="#ffffff" fill-opacity="1" d="M-72.878,29.917C-65.576,31.366,-69.76,6.592,-69.809,2.857L-70.309,3.357C-54.593,3.497,-38.875,3.538,-23.159,3.4C-11.925,3.302,-0.7,3.015,10.536,3.016C17.445,3.016,24.317,2.761,31.218,2.495C38.617,2.209,45.994,2.233,53.202,0.318C66.993,-3.346,72.014,-17.928,73.438,-30.725C73.51,-31.366,72.509,-31.358,72.438,-30.725C71.381,-21.227,68.502,-10.819,60.861,-4.492C55.106,0.273,46.624,0.878,39.483,1.225C32.371,1.571,25.228,1.871,18.108,1.973C-4.414,2.296,-26.955,2.516,-49.481,2.465C-56.423,2.45,-63.366,2.418,-70.309,2.357C-70.579,2.355,-70.812,2.586,-70.809,2.857C-70.768,6.007,-67.511,29.966,-72.612,28.954C-73.242,28.829,-73.51,29.792,-72.878,29.917Z" /></g><g id="Group 1" transform="matrix(1,0,0,1,213.579,66.039)"><path fill="#ffffff" fill-opacity="1" d="M-0.596,-18.657C-0.588,-6.236,-0.055,6.255,-0.902,18.658C-0.946,19.302,0.054,19.298,0.098,18.658C0.945,6.255,0.412,-6.236,0.404,-18.657C0.404,-19.302,-0.596,-19.302,-0.596,-18.657Z" /></g></g></g></g></g><g visibility="hidden" id="Customer 2"><animate repeatCount="indefinite" begin="2.829s" calcMode="discrete" fill="freeze" dur="6s" values="visible; visible" keyTimes="0; 1" attributeName="visibility" /><g transform="translate(523.381,359.852)"><animateTransform repeatCount="indefinite" type="translate" attributeName="transform" dur="4.5s" begin="1.829s" calcMode="spline" values="523.381 363.695; 523.381 353.695; 523.381 363.695; 523.381 353.695" keyTimes="0; 0.333; 0.667; 1" keySplines="0.333 0 0.667 1; 0.333 0 0.667 1; 0.333 0 0.667 1" fill="freeze" /><g transform="scale(0,0)"><animateTransform repeatCount="indefinite" type="scale" attributeName="transform" dur="0.667s" begin="2.829s" calcMode="spline" values="0 0; 1 1" keyTimes="0; 1" keySplines="0.333 0 0 1" fill="freeze" /><g transform="translate(-32.622,-162.987)"><g id="Group 27" transform="matrix(1,0,0,1,113.083,66.254)"><path fill="#6097ff" fill-opacity="1" d="M112.833,26.212C112.833,48.189,95.017,66.004,73.04,66.004L-73.04,66.004C-95.017,66.004,-112.833,48.189,-112.833,26.212L-112.833,-26.211C-112.833,-48.187,-95.017,-66.004,-73.04,-66.004L73.04,-66.004C95.017,-66.004,112.833,-48.187,112.833,-26.211L112.833,26.212Z" /></g><g id="Group 26" transform="matrix(1,0,0,1,54.941,140.714)"><path fill="#6097ff" fill-opacity="1" d="M-9.642,14.423C-16.478,20.898,-22.062,20.899,-22.048,14.423C-22.034,7.949,-22.011,-2.649,-21.998,-9.124C-21.985,-15.6,-16.391,-20.898,-9.569,-20.898L15.239,-20.898C22.061,-20.898,22.051,-15.6,15.215,-9.124C8.379,-2.647,-2.807,7.948,-9.642,14.423Z" /></g><g id="Group 25" transform="matrix(1,0,0,1,36.108,36.315)"><path fill="#ffffff" fill-opacity="1" d="M-1.126,-5.98L-6.583,-5.98L-6.583,-7.958L6.583,-7.958L6.583,-5.98L1.125,-5.98L1.125,7.958L-1.126,7.958L-1.126,-5.98Z" /></g><g id="Group 24" transform="matrix(1,0,0,1,52.014,36.315)"><path fill="#ffffff" fill-opacity="1" d="M6.844,-7.959L6.844,7.959L4.571,7.959L4.571,0.864L-4.571,0.864L-4.571,7.959L-6.844,7.959L-6.844,-7.959L-4.571,-7.959L-4.571,-1.114L4.571,-1.114L4.571,-7.959L6.844,-7.959Z" /></g><g id="Group 23" transform="matrix(1,0,0,1,69.567,36.315)"><path fill="#ffffff" fill-opacity="1" d="M3.411,2.16L-0.023,-5.639L-3.456,2.16L3.411,2.16ZM4.207,3.979L-4.252,3.979L-6.003,7.958L-8.345,7.958L-1.137,-7.958L1.114,-7.958L8.345,7.958L5.957,7.958L4.207,3.979Z" /></g><g id="Group 22" transform="matrix(1,0,0,1,87.122,36.315)"><path fill="#ffffff" fill-opacity="1" d="M6.844,-7.959L6.844,7.959L4.98,7.959L-4.571,-3.911L-4.571,7.959L-6.844,7.959L-6.844,-7.959L-4.98,-7.959L4.571,3.911L4.571,-7.959L6.844,-7.959Z" /></g><g id="Group 21" transform="matrix(1,0,0,1,105.71,36.315)"><path fill="#ffffff" fill-opacity="1" d="M-1.784,0.887L-4.695,3.844L-4.695,7.958L-6.97,7.958L-6.97,-7.958L-4.695,-7.958L-4.695,0.932L3.944,-7.958L6.538,-7.958L-0.262,-0.796L6.97,7.958L4.31,7.958L-1.784,0.887Z" /></g><g id="Group 20" transform="matrix(1,0,0,1,119.422,36.315)"><path fill="#ffffff" fill-opacity="1" d="M-3.502,7.583C-4.616,7.212,-5.491,6.731,-6.128,6.14L-5.287,4.366C-4.681,4.912,-3.903,5.355,-2.956,5.696C-2.009,6.037,-1.035,6.208,-0.034,6.208C1.284,6.208,2.269,5.983,2.922,5.536C3.573,5.09,3.899,4.495,3.899,3.752C3.899,3.207,3.721,2.764,3.365,2.422C3.009,2.081,2.569,1.819,2.046,1.638C1.523,1.456,0.784,1.251,-0.171,1.023C-1.368,0.736,-2.335,0.448,-3.07,0.16C-3.806,-0.128,-4.435,-0.571,-4.957,-1.171C-5.481,-1.77,-5.742,-2.576,-5.742,-3.592C-5.742,-4.441,-5.519,-5.207,-5.071,-5.889C-4.624,-6.571,-3.945,-7.116,-3.036,-7.526C-2.126,-7.936,-0.997,-8.141,0.352,-8.141C1.292,-8.141,2.217,-8.019,3.126,-7.776C4.036,-7.533,4.816,-7.185,5.469,-6.73L4.718,-4.911C4.051,-5.335,3.339,-5.658,2.581,-5.878C1.822,-6.098,1.08,-6.207,0.352,-6.207C-0.937,-6.207,-1.902,-5.973,-2.547,-5.503C-3.191,-5.033,-3.514,-4.426,-3.514,-3.684C-3.514,-3.138,-3.331,-2.694,-2.968,-2.353C-2.604,-2.012,-2.153,-1.746,-1.614,-1.557C-1.077,-1.367,-0.346,-1.167,0.58,-0.954C1.777,-0.666,2.74,-0.378,3.468,-0.091C4.195,0.197,4.82,0.637,5.344,1.229C5.866,1.819,6.128,2.615,6.128,3.616C6.128,4.45,5.9,5.212,5.445,5.901C4.991,6.591,4.301,7.137,3.376,7.538C2.451,7.94,1.314,8.141,-0.034,8.141C-1.232,8.141,-2.388,7.954,-3.502,7.583Z" /></g><g id="Group 19" transform="matrix(1,0,0,1,129.529,36.384)"><path fill="#ffffff" fill-opacity="1" d="M-1.274,-8.027L1.295,-8.027L0.864,2.865L-0.865,2.865L-1.274,-8.027ZM-1.046,7.606C-1.335,7.326,-1.478,6.981,-1.478,6.572C-1.478,6.161,-1.335,5.817,-1.046,5.536C-0.758,5.256,-0.402,5.116,0.022,5.116C0.447,5.116,0.795,5.256,1.068,5.536C1.341,5.817,1.478,6.161,1.478,6.572C1.478,6.981,1.337,7.326,1.057,7.606C0.776,7.886,0.431,8.027,0.022,8.027C-0.402,8.027,-0.758,7.886,-1.046,7.606Z" /></g><g id="Group 18" transform="matrix(1,0,0,1,77.678,58.152)"><path fill="#ffffff" fill-opacity="1" d="M-50.941,3.312L50.941,3.312L50.941,-3.312L-50.941,-3.312L-50.941,3.312Z" /></g><g id="Group 17" transform="matrix(1,0,0,1,70.727,74.247)"><path fill="#ffffff" fill-opacity="1" d="M-43.99,3.314L43.99,3.314L43.99,-3.314L-43.99,-3.314L-43.99,3.314Z" /></g><g id="Group 16" transform="matrix(1,0,0,1,55.915,90.341)"><path fill="#ffffff" fill-opacity="1" d="M-29.177,3.312L29.177,3.312L29.177,-3.312L-29.177,-3.312L-29.177,3.312Z" /></g><g id="Group 15" transform="matrix(1,0,0,1,179.969,106.211)"><path fill="#6097ff" fill-opacity="1" d="M-27.969,0.768C-24.933,-6.771,-14.43,-12.159,-9.063,-12.088L9.062,-12.088C15.02,-11.527,24.934,-6.771,27.969,0.768C20.871,7.793,10.969,12.159,0.001,12.159C-10.966,12.159,-20.87,7.793,-27.969,0.768Z" /></g><g id="Group 14" transform="matrix(1,0,0,1,179.69,93.582)"><path fill="#fec5c4" fill-opacity="1" d="M7.683,-14.933C7.683,-14.933,9.418,-0.674,10.618,7.389C11.493,13.278,-9.645,14.933,-10.287,8.585C-10.849,1.055,-11.493,-11.706,-11.493,-11.706" /></g><g id="Group 13" transform="matrix(1,0,0,1,178.214,85.324)"><path fill="#ecb9b8" fill-opacity="1" d="M10.017,-0.123L9.158,-6.676L-10.017,-3.449C-10.017,-3.449,-9.817,0.474,-9.548,5.391C-8.203,5.816,-6.798,6.112,-5.329,6.223C0.734,6.676,6.318,4.139,10.017,-0.123Z" /></g><g id="Group 12" transform="matrix(1,0,0,1,175.06,58.995)"><path fill="#fec5c4" fill-opacity="1" d="M-19.182,8.378C-19.943,18.569,-12.299,27.446,-2.111,28.211C8.079,28.971,16.961,21.328,17.72,11.136L19.181,-8.379C19.944,-18.57,12.297,-27.449,2.11,-28.208C-8.082,-28.971,-16.962,-21.328,-17.721,-11.138L-19.182,8.378Z" /></g><g id="Group 11" transform="matrix(1,0,0,1,178.153,50.28)"><path fill="#4a3b31" fill-opacity="1" d="M3.059,0.567C2.054,-1.366,-0.175,-2.705,-2.378,-2.45C-3.634,-2.304,-3.648,-0.318,-2.378,-0.465C-0.816,-0.647,0.627,0.187,1.346,1.569C1.936,2.704,3.649,1.701,3.059,0.567Z" /></g><g id="Group 10" transform="matrix(1,0,0,1,162.706,48.96)"><path fill="#4a3b31" fill-opacity="1" d="M-1.593,1.342C-0.726,0.433,0.866,-0.192,2.108,0.109C3.351,0.409,3.878,-1.504,2.635,-1.804C0.712,-2.269,-1.635,-1.487,-2.996,-0.06C-3.879,0.865,-2.478,2.269,-1.593,1.342Z" /></g><g id="Group 9" transform="matrix(1,0,0,1,168.15,62.319)"><path fill="#4a3b31" fill-opacity="1" d="M1.245,3.39C1.039,3.39,0.834,3.306,0.685,3.14L-2.518,-0.443C-2.679,-0.625,-2.743,-0.873,-2.69,-1.11C-2.636,-1.346,-2.47,-1.543,-2.245,-1.635L1.604,-3.233C1.986,-3.39,2.426,-3.21,2.584,-2.827C2.743,-2.444,2.561,-2.006,2.179,-1.847L-0.694,-0.655L1.805,2.14C2.08,2.449,2.054,2.923,1.745,3.2C1.601,3.328,1.423,3.39,1.245,3.39Z" /></g><g id="Group 8" transform="matrix(1,0,0,1,170.25,72.2)"><path fill="#4a3b31" fill-opacity="1" d="M-3.719,-2.124C-3.092,0.691,-2.172,2.281,-1.147,2.281C-0.487,2.281,0.923,1.7,3.262,-1.94C0.558,-1.808,-1.502,-1.856,-3.719,-2.124ZM-1.146,3.781L-1.147,3.781C-3.201,3.781,-4.592,1.605,-5.399,-2.875C-5.442,-3.112,-5.367,-3.356,-5.199,-3.529C-5.031,-3.703,-4.786,-3.781,-4.551,-3.75C-3.286,-3.563,-1.682,-3.372,0.636,-3.372C1.831,-3.372,3.129,-3.421,4.604,-3.521C4.877,-3.545,5.146,-3.404,5.294,-3.167C5.439,-2.931,5.442,-2.632,5.301,-2.393C2.85,1.762,0.741,3.781,-1.146,3.781Z" /></g><g><g transform="translate(176.32,58.879)"><g id="Group 7" transform="scale(1,1)"><animateTransform repeatCount="indefinite" type="scale" attributeName="transform" dur="0.333s" begin="3.629s" calcMode="spline" values="1 1; 1 0; 1 1" keyTimes="0; 0.5; 1" keySplines="0 0 1 1; 0 0 1 1" fill="freeze" /><path fill="#2f2d34" fill-opacity="1" d="M-2.186,0.539C-1.887,1.746,-0.667,2.482,0.538,2.185C1.742,1.887,2.481,0.667,2.181,-0.539C1.884,-1.744,0.667,-2.482,-0.54,-2.185C-1.747,-1.887,-2.481,-0.666,-2.186,0.539Z" /></g></g></g><g><g transform="translate(162.87,58.08)"><g id="Group 6" transform="scale(1,1)"><animateTransform repeatCount="indefinite" type="scale" attributeName="transform" dur="0.333s" begin="3.629s" calcMode="spline" values="1 1; 1 0; 1 1" keyTimes="0; 0.5; 1" keySplines="0 0 1 1; 0 0 1 1" fill="freeze" /><path fill="#2f2d34" fill-opacity="1" d="M-2.184,0.538C-1.887,1.74,-0.667,2.481,0.539,2.184C1.742,1.887,2.483,0.665,2.185,-0.54C1.886,-1.745,0.668,-2.48,-0.537,-2.183C-1.743,-1.885,-2.483,-0.669,-2.184,0.538Z" /></g></g></g><g id="Group 5" transform="matrix(1,0,0,1,196.017,65.786)"><path fill="#fec5c4" fill-opacity="1" d="M-6.78,-0.555C-7.656,3.05,-5.444,6.684,-1.839,7.561C1.768,8.437,5.403,6.226,6.276,2.618L6.778,0.555C7.657,-3.05,5.444,-6.684,1.836,-7.561C-1.77,-8.437,-5.405,-6.222,-6.28,-2.617L-6.78,-0.555Z" /></g><g id="Group 4" transform="matrix(1,0,0,1,181.212,42.051)"><path fill="#1a1a1a" fill-opacity="1" d="M18.161,16.848C19.739,12.347,27.436,-5.953,15.989,-6.504C15.277,-13.689,5.291,-17.478,-7.183,-19.925C-19.656,-22.372,-27.436,-16.531,-26.488,-10.688C-25.54,-4.845,-17.882,-2.715,-11.804,-4.451C-10.067,1.866,-1.698,-0.267,0.119,-1.529C1.52,4.589,8.468,6.07,7.68,10.333C6.889,14.597,6.534,18.939,6.375,19.809C6.219,20.679,9.848,22.372,10.641,20.635C11.429,18.899,14.548,15.781,18.161,16.848Z" /></g><g id="Group 3" transform="matrix(1,0,0,1,202.175,116.318)"><path fill="#ffffff" fill-opacity="1" d="M-16.521,12.99C-1.833,12.408,13.91,3.063,17.038,-12.117C17.167,-12.746,16.203,-13.015,16.073,-12.383C13.036,2.359,-2.254,11.425,-16.521,11.99C-17.164,12.015,-17.167,13.015,-16.521,12.99Z" /></g><g id="Group 2" transform="matrix(1,0,0,1,177.523,128.989)"><path fill="#fdf5e4" fill-opacity="1" d="M-4.02,0.4C-1.34,0.496,1.34,0.548,4.021,0.608C4.667,0.623,4.665,-0.377,4.021,-0.392C1.34,-0.452,-1.34,-0.504,-4.02,-0.6C-4.666,-0.623,-4.663,0.378,-4.02,0.4Z" /></g><g id="Group 1" transform="matrix(1,0,0,1,104.47,139.57)"><path fill="#ffffff" fill-opacity="1" d="M-59.397,11.907C-54.361,7.377,-49.306,2.869,-44.573,-1.982C-42.383,-4.226,-40.429,-7.155,-37.785,-8.931C-36.219,-9.983,-34.277,-10.152,-32.447,-10.257C-28.844,-10.465,-25.217,-10.371,-21.611,-10.42C-15.069,-10.51,-8.537,-10.86,-1.993,-10.847C5.017,-10.833,12.023,-10.517,19.024,-10.197C32.661,-9.575,46.332,-8.931,59.943,-10.333C60.578,-10.399,60.584,-11.4,59.943,-11.333C46.017,-9.899,32.03,-10.605,18.08,-11.24C10.746,-11.574,3.41,-11.86,-3.933,-11.847C-10.484,-11.835,-17.03,-11.468,-23.581,-11.397C-28.047,-11.348,-34.267,-12.337,-38.29,-9.795C-40.782,-8.219,-42.653,-5.45,-44.633,-3.362C-49.507,1.779,-54.841,6.467,-60.104,11.2C-60.584,11.632,-59.875,12.337,-59.397,11.907Z" /></g></g></g></g></g><g visibility="hidden" id="Reviews"><animate repeatCount="indefinite" begin="2.996s" calcMode="discrete" fill="freeze" dur="6s" values="visible; visible" keyTimes="0; 1" attributeName="visibility" /><g transform="translate(516.456,140.164)"><animateTransform repeatCount="indefinite" type="translate" attributeName="transform" dur="7.5s" begin="0.996s" calcMode="spline" values="516.456 130.179; 516.456 140.179; 516.456 130.179; 516.456 140.179; 516.456 130.179; 516.456 140.179" keyTimes="0; 0.2; 0.4; 0.6; 0.8; 1" keySplines="0.333 0 0.667 1; 0.333 0 0.667 1; 0.333 0 0.667 1; 0.333 0 0.667 1; 0.333 0 0.667 1" fill="freeze" /><g transform="scale(0,0)"><animateTransform repeatCount="indefinite" type="scale" attributeName="transform" dur="0.667s" begin="2.996s" calcMode="spline" values="0 0; 1 1" keyTimes="0; 1" keySplines="0.333 0 0 1" fill="freeze" /><g transform="translate(-118.048,-30.774)"><g id="Group 8" transform="matrix(1,0,0,1,118.048,30.774)"><path fill="#6097ff" fill-opacity="1" d="M117.798,9.695C117.798,21.198,108.472,30.524,96.969,30.524L-96.969,30.524C-108.472,30.524,-117.798,21.198,-117.798,9.695L-117.798,-9.694C-117.798,-21.197,-108.472,-30.524,-96.969,-30.524L96.969,-30.524C108.472,-30.524,117.798,-21.197,117.798,-9.694L117.798,9.695Z" /></g><g><g id="Group 7" transform="translate(33.983,26.28)"><animateTransform repeatCount="indefinite" type="translate" attributeName="transform" dur="6.017s" begin="0s" calcMode="spline" values="33.983 27.778; 33.983 22.778; 33.983 27.778; 33.983 22.778; 33.983 27.778" keyTimes="0; 0.25; 0.5; 0.75; 1" keySplines="0.333 0 0.667 1; 0.333 0 0.667 1; 0.333 0 0.667 1; 0.333 0 0.667 1" fill="freeze" /><path fill="#ffffff" fill-opacity="1" d="M-1.328,-12.95C-0.599,-14.429,0.597,-14.429,1.326,-12.95L3.658,-8.225C4.388,-6.746,6.32,-5.341,7.953,-5.103L13.168,-4.346C14.801,-4.108,15.17,-2.971,13.988,-1.82L10.217,1.856C9.035,3.007,8.298,5.279,8.576,6.906L9.467,12.099C9.745,13.725,8.778,14.428,7.318,13.66L2.654,11.207C1.194,10.44,-1.196,10.44,-2.656,11.208L-7.32,13.659C-8.78,14.428,-9.746,13.725,-9.467,12.099L-8.577,6.906C-8.298,5.279,-9.035,3.007,-10.217,1.856L-13.988,-1.82C-15.17,-2.971,-14.802,-4.108,-13.169,-4.346L-7.956,-5.105C-6.323,-5.343,-4.39,-6.748,-3.66,-8.227L-1.328,-12.95Z" /></g></g><g><g id="Group 6" transform="translate(75.649,24.471)"><animateTransform repeatCount="indefinite" type="translate" attributeName="transform" dur="6.017s" begin="0.371s" calcMode="spline" values="75.649 27.778; 75.649 22.778; 75.649 27.778; 75.649 22.778; 75.649 27.778" keyTimes="0; 0.25; 0.5; 0.75; 1" keySplines="0.333 0 0.667 1; 0.333 0 0.667 1; 0.333 0 0.667 1; 0.333 0 0.667 1" fill="freeze" /><path fill="#ffffff" fill-opacity="1" d="M-1.326,-12.95C-0.596,-14.429,0.599,-14.429,1.329,-12.95L3.658,-8.225C4.389,-6.746,6.321,-5.341,7.954,-5.103L13.168,-4.346C14.801,-4.108,15.17,-2.971,13.988,-1.82L10.217,1.856C9.035,3.007,8.298,5.279,8.577,6.906L9.467,12.099C9.746,13.725,8.78,14.428,7.32,13.659L2.656,11.208C1.196,10.44,-1.194,10.44,-2.654,11.207L-7.319,13.66C-8.779,14.428,-9.746,13.725,-9.467,12.099L-8.576,6.906C-8.297,5.279,-9.035,3.007,-10.217,1.856L-13.987,-1.82C-15.169,-2.971,-14.8,-4.108,-13.167,-4.346L-7.953,-5.105C-6.32,-5.343,-4.387,-6.748,-3.656,-8.227L-1.326,-12.95Z" /></g></g><g><g id="Group 5" transform="translate(117.317,23.059)"><animateTransform repeatCount="indefinite" type="translate" attributeName="transform" dur="6.017s" begin="0.742s" calcMode="spline" values="117.317 27.778; 117.317 22.778; 117.317 27.778; 117.317 22.778; 117.317 27.778" keyTimes="0; 0.25; 0.5; 0.75; 1" keySplines="0.333 0 0.667 1; 0.333 0 0.667 1; 0.333 0 0.667 1; 0.333 0 0.667 1" fill="freeze" /><path fill="#ffffff" fill-opacity="1" d="M-1.328,-12.95C-0.598,-14.429,0.597,-14.429,1.326,-12.95L3.657,-8.225C4.387,-6.746,6.32,-5.341,7.953,-5.103L13.167,-4.346C14.8,-4.108,15.169,-2.971,13.987,-1.82L10.217,1.856C9.035,3.007,8.298,5.279,8.576,6.906L9.467,12.099C9.745,13.725,8.778,14.428,7.318,13.659L2.654,11.208C1.194,10.44,-1.196,10.44,-2.656,11.208L-7.318,13.659C-8.778,14.428,-9.744,13.725,-9.466,12.099L-8.577,6.906C-8.298,5.279,-9.037,3.007,-10.219,1.856L-13.988,-1.82C-15.17,-2.971,-14.801,-4.108,-13.168,-4.346L-7.958,-5.104C-6.325,-5.343,-4.392,-6.748,-3.661,-8.227L-1.328,-12.95Z" /></g></g><g><g id="Group 4" transform="translate(158.984,22.925)"><animateTransform repeatCount="indefinite" type="translate" attributeName="transform" dur="6.017s" begin="1.112s" calcMode="spline" values="158.984 27.778; 158.984 22.778; 158.984 27.778; 158.984 22.778; 158.984 27.778" keyTimes="0; 0.25; 0.5; 0.75; 1" keySplines="0.333 0 0.667 1; 0.333 0 0.667 1; 0.333 0 0.667 1; 0.333 0 0.667 1" fill="freeze" /><path fill="#ffffff" fill-opacity="1" d="M-1.327,-12.95C-0.597,-14.429,0.599,-14.429,1.328,-12.95L3.658,-8.225C4.388,-6.746,6.321,-5.341,7.954,-5.103L13.168,-4.346C14.801,-4.108,15.17,-2.971,13.988,-1.82L10.217,1.856C9.035,3.007,8.297,5.279,8.576,6.906L9.467,12.099C9.746,13.725,8.779,14.428,7.319,13.659L2.656,11.208C1.196,10.44,-1.194,10.44,-2.654,11.208L-7.318,13.659C-8.778,14.428,-9.745,13.725,-9.467,12.099L-8.576,6.906C-8.298,5.28,-9.036,3.007,-10.218,1.856L-13.988,-1.82C-15.17,-2.971,-14.801,-4.108,-13.168,-4.346L-7.955,-5.105C-6.322,-5.343,-4.389,-6.748,-3.658,-8.227L-1.327,-12.95Z" /></g></g><g><g id="Group 3" transform="translate(200.652,24.18)"><animateTransform repeatCount="indefinite" type="translate" attributeName="transform" dur="6.017s" begin="1.483s" calcMode="spline" values="200.652 27.778; 200.652 22.778; 200.652 27.778; 200.652 22.778; 200.652 27.778" keyTimes="0; 0.25; 0.5; 0.75; 1" keySplines="0.333 0 0.667 1; 0.333 0 0.667 1; 0.333 0 0.667 1; 0.333 0 0.667 1" fill="freeze" /><path fill="#ffffff" fill-opacity="1" d="M-1.33,-12.95C-0.6,-14.429,0.595,-14.429,1.325,-12.95L3.658,-8.225C4.389,-6.746,6.321,-5.341,7.954,-5.103L13.168,-4.346C14.801,-4.108,15.17,-2.971,13.988,-1.82L10.215,1.856C9.033,3.007,8.295,5.279,8.574,6.906L9.465,12.099C9.744,13.725,8.777,14.428,7.317,13.66L2.652,11.207C1.192,10.44,-1.197,10.44,-2.658,11.208L-7.319,13.659C-8.779,14.428,-9.745,13.725,-9.467,12.099L-8.576,6.906C-8.298,5.279,-9.035,3.007,-10.217,1.856L-13.988,-1.82C-15.17,-2.971,-14.801,-4.108,-13.168,-4.346L-7.957,-5.104C-6.324,-5.343,-4.391,-6.748,-3.66,-8.227L-1.33,-12.95Z" /></g></g><g id="Group 2" transform="matrix(1,0,0,1,109.41,57.555)"><path fill="#ffffff" fill-opacity="1" d="M-4.932,0.683C-1.642,0.645,1.642,0.356,4.932,0.318C5.577,0.31,5.578,-0.69,4.932,-0.682C1.642,-0.644,-1.642,-0.355,-4.932,-0.317C-5.577,-0.31,-5.578,0.69,-4.932,0.683Z" /></g><g id="Group 1" transform="matrix(1,0,0,1,174.041,50.668)"><path fill="#ffffff" fill-opacity="1" d="M-55.117,7.205C-43.359,6.94,-31.601,7.465,-19.844,7.273C-13.977,7.178,-8.158,6.629,-2.304,6.342C3.848,6.04,10.015,6.144,16.169,6.303C22.048,6.454,27.924,6.683,33.805,6.769C37.861,6.83,41.984,7.025,45.975,6.162C52.506,4.75,55.284,-0.538,55.718,-6.821C55.763,-7.465,54.762,-7.461,54.718,-6.821C54.477,-3.335,53.669,0.093,51.073,2.59C48.711,4.862,45.155,5.474,42.024,5.72C37.362,6.086,32.584,5.768,27.916,5.648C22.374,5.505,16.833,5.292,11.289,5.196C0.222,5.003,-10.749,6.16,-21.804,6.302C-32.909,6.444,-44.012,5.955,-55.117,6.205C-55.761,6.22,-55.763,7.22,-55.117,7.205Z" /></g></g></g></g></g><g visibility="hidden" id="Time"><animate repeatCount="indefinite" begin="2.829s" calcMode="discrete" fill="freeze" dur="6s" values="visible; visible" keyTimes="0; 1" attributeName="visibility" /><g transform="translate(106.447,285.95)"><animateTransform repeatCount="indefinite" type="translate" attributeName="transform" dur="7.5s" begin="1.329s" calcMode="spline" values="106.447 277.452; 106.447 287.452; 106.447 277.452; 106.447 287.452; 106.447 277.452; 106.447 287.452" keyTimes="0; 0.2; 0.4; 0.6; 0.8; 1" keySplines="0.333 0 0.667 1; 0.333 0 0.667 1; 0.333 0 0.667 1; 0.333 0 0.667 1; 0.333 0 0.667 1" fill="freeze" /><g transform="scale(0,0)"><animateTransform repeatCount="indefinite" type="scale" attributeName="transform" dur="0.667s" begin="2.829s" calcMode="spline" values="0 0; 1 1" keyTimes="0; 1" keySplines="0.333 0 0 1" fill="freeze" /><g transform="translate(-62.225,-33.195)"><g id="Group 7" transform="matrix(1,0,0,1,62.225,33.195)"><path fill="#6097ff" fill-opacity="1" d="M61.975,12.117C61.975,23.619,52.648,32.945,41.145,32.945L-41.146,32.945C-52.649,32.945,-61.975,23.619,-61.975,12.117L-61.975,-12.116C-61.975,-23.619,-52.649,-32.945,-41.146,-32.945L41.145,-32.945C52.648,-32.945,61.975,-23.619,61.975,-12.116L61.975,12.117Z" /></g><g id="Group 6" transform="matrix(1,0,0,1,32.534,31.255)"><path fill="#ffffff" fill-opacity="1" d="M8.445,8.573L8.445,11.366L-7.706,11.366L-7.706,9.182L1.445,0.353C2.558,-0.717,3.307,-1.643,3.692,-2.424C4.077,-3.205,4.27,-3.992,4.27,-4.784C4.27,-5.961,3.859,-6.876,3.035,-7.53C2.211,-8.182,1.027,-8.509,-0.514,-8.509C-2.997,-8.509,-4.913,-7.695,-6.262,-6.069L-8.445,-7.963C-7.567,-9.033,-6.416,-9.867,-4.993,-10.467C-3.569,-11.067,-1.981,-11.366,-0.225,-11.366C2.129,-11.366,4.003,-10.805,5.395,-9.681C6.786,-8.557,7.481,-7.031,7.481,-5.106C7.481,-3.906,7.224,-2.772,6.71,-1.702C6.196,-0.631,5.222,0.589,3.788,1.959L-3.083,8.573L8.445,8.573Z" /></g><g id="Group 5" transform="matrix(1,0,0,1,52.617,31.383)"><path fill="#ffffff" fill-opacity="1" d="M9.938,5.715L5.667,5.715L5.667,11.238L2.553,11.238L2.553,5.715L-9.938,5.715L-9.938,3.468L1.557,-11.238L5.025,-11.238L-5.988,2.954L2.648,2.954L2.648,-1.927L5.667,-1.927L5.667,2.954L9.938,2.954L9.938,5.715Z" /></g><g id="Group 4" transform="matrix(1,0,0,1,69.602,30.708)"><path fill="#ffffff" fill-opacity="1" d="M3.902,-15.123L6.695,-15.123L-3.9,15.123L-6.695,15.123L3.902,-15.123Z" /></g><g id="Group 3" transform="matrix(1,0,0,1,84.932,31.383)"><path fill="#ffffff" fill-opacity="1" d="M8.477,-11.238L8.477,-9.054L-0.61,11.238L-4.014,11.238L4.88,-8.444L-5.395,-8.444L-5.395,-4.431L-8.477,-4.431L-8.477,-11.238L8.477,-11.238Z" /></g><g id="Group 2" transform="matrix(1,0,0,1,93.069,61.075)"><path fill="#ffffff" fill-opacity="1" d="M-21.393,1.479C-7.134,-2.012,8.762,5.003,21.755,-3.778C22.286,-4.136,21.786,-5.003,21.25,-4.641C8.415,4.034,-7.529,-2.946,-21.66,0.514C-22.286,0.667,-22.019,1.632,-21.393,1.479Z" /></g><g id="Group 1" transform="matrix(1,0,0,1,119.401,39.669)"><path fill="#ffffff" fill-opacity="1" d="M0.151,-14.047C0.372,-11.897,0.264,-9.747,0.556,-7.6C0.895,-5.114,1.262,-2.714,1.237,-0.199C1.191,4.559,0.789,9.622,-1.973,13.656C-2.339,14.189,-1.472,14.689,-1.11,14.16C1.318,10.615,1.93,6.35,2.167,2.147C2.29,-0.025,2.339,-2.241,2.041,-4.401C1.595,-7.629,1.482,-10.82,1.151,-14.047C1.086,-14.682,0.085,-14.689,0.151,-14.047Z" /></g></g></g></g></g></svg>