<?xml version="1.0" encoding="utf-8"?><svg fill="none" viewBox="0 0 1004 744" xmlns="http://www.w3.org/2000/svg"><defs /><g transform="matrix(1,0,0,1,500,362)" id="Layer 1"><g id="Group 2"><path fill="#dff3fc" fill-opacity="1" d="M381.472,344.231C482.114,267.705,526.936,55.506,363.522,-48.548C255.335,-117.423,188.05,-78.132,66.342,-123.696C-82.237,-179.305,-104.384,-347.317,-285.112,-264.646C-380.859,-220.863,-447.233,-97.46,-458.91,42.791C-470.354,180.139,-421.675,274.381,-322.198,338.869C-88.595,348.808,145.474,347.007,381.472,344.231Z" /></g><g id="Group 1"><path fill="#dff3fc" fill-opacity="1" d="M-31.988,-259.354C-47.188,-198.32,9.261,-137.9,68.732,-112.851C128.203,-87.78,196.402,-90.769,260.113,-102.721C287.605,-107.871,315.863,-115.119,337.22,-132.645C358.577,-150.171,370.958,-180.603,359.253,-205.186C348.924,-226.866,323.778,-237.97,299.805,-243.671C275.832,-249.372,250.37,-251.703,229.013,-263.698C208.761,-275.078,194.395,-293.919,176.781,-308.838C144.238,-336.367,98.523,-350.015,56.215,-341.305C13.884,-332.595,-19.066,-311.233,-31.988,-259.354Z" /></g></g><g id="Layer 2"><g transform="translate(817.98,360.287)"><g transform="rotate(0)"><animateTransform repeatCount="indefinite" type="rotate" attributeName="transform" dur="5.967s" begin="0s" calcMode="spline" values="0; 360" keyTimes="0; 1" keySplines="0 0 1 1" fill="freeze" /><g transform="scale(1,1) translate(-317.98,1.713)"><g id="Group 1"><path fill="#a2c7eb" fill-opacity="1" d="M317.992,38.292C295.892,38.292,277.975,20.375,277.975,-1.725C277.975,-23.8,295.892,-41.717,317.992,-41.717C340.067,-41.717,357.984,-23.8,357.984,-1.725C357.984,20.375,340.067,38.292,317.992,38.292ZM423.358,21.374L423.358,-24.8L405.85,-24.8C403.747,-32.873,400.541,-40.485,396.435,-47.496L408.814,-59.896L376.162,-92.548L363.763,-80.168C356.752,-84.274,349.139,-87.48,341.066,-89.583L341.066,-107.091L294.893,-107.091L294.893,-89.583C286.82,-87.48,279.208,-84.274,272.197,-80.168L259.797,-92.548L227.145,-59.896L239.525,-47.496C235.419,-40.485,232.232,-32.873,230.109,-24.8L212.602,-24.8L212.602,21.374L230.109,21.374C232.232,29.447,235.419,37.059,239.525,44.07L227.145,56.47L259.797,89.122L272.197,76.742C279.208,80.848,286.82,84.034,294.893,86.157L294.893,103.665L341.066,103.665L341.066,86.157C349.139,84.034,356.752,80.848,363.763,76.742L376.162,89.122L408.814,56.47L396.435,44.07C400.541,37.059,403.747,29.447,405.85,21.374L423.358,21.374Z" /></g></g></g></g></g><g id="Layer 3"><g transform="translate(727.175,507.664)"><g transform="rotate(0)"><animateTransform repeatCount="indefinite" type="rotate" attributeName="transform" dur="5.967s" begin="0s" calcMode="spline" values="0; -360" keyTimes="0; 1" keySplines="0 0 1 1" fill="freeze" /><g transform="scale(1,1) translate(-227.175,-145.664)"><g id="Group 1"><path stroke-linejoin="miter" stroke-linecap="butt" stroke-width="1" stroke-opacity="1" stroke="#a2c7eb" d="M234.792,165.501C223.832,169.706,211.538,164.229,207.333,153.269C203.133,142.321,208.61,130.027,219.57,125.822C230.518,121.622,242.812,127.099,247.012,138.047C251.217,149.007,245.74,161.301,234.792,165.501ZM283.827,137.065L275.043,114.166L266.36,117.497C263.781,113.894,260.743,110.728,257.373,108.032L261.153,99.528L238.748,89.547L234.954,98.045C230.696,97.342,226.311,97.202,221.907,97.695L218.576,89.012L195.677,97.797L199.008,106.479C195.405,109.058,192.24,112.096,189.544,115.466L181.039,111.686L171.058,134.092L179.556,137.886C178.853,142.144,178.722,146.524,179.205,150.932L170.523,154.263L179.308,177.162L187.99,173.831C190.579,177.431,193.607,180.6,196.978,183.296L193.197,191.8L215.602,201.781L219.397,193.283C223.655,193.986,228.035,194.117,232.443,193.634L235.774,202.316L258.673,193.532L255.342,184.849C258.942,182.26,262.111,179.232,264.807,175.862L273.311,179.642L283.292,157.237L274.794,153.442C275.497,149.184,275.638,144.8,275.145,140.396L283.827,137.065Z" /></g></g></g></g></g><g id="Layer 4"><g transform="translate(670.523,424.554)"><g transform="rotate(0)"><animateTransform repeatCount="indefinite" type="rotate" attributeName="transform" dur="5.967s" begin="0s" calcMode="spline" values="0; 360" keyTimes="0; 1" keySplines="0 0 1 1" fill="freeze" /><g transform="scale(1,1) translate(-170.523,-62.554)"><g id="Group 1"><path stroke-linejoin="miter" stroke-linecap="butt" stroke-width="1" stroke-opacity="1" stroke="#a2c7eb" d="M175.67,75.958C168.265,78.799,159.958,75.098,157.117,67.693C154.279,60.296,157.98,51.989,165.385,49.148C172.782,46.31,181.089,50.011,183.927,57.408C186.768,64.813,183.067,73.12,175.67,75.958ZM208.802,56.744L202.867,41.272L197,43.522C195.257,41.087,193.204,38.948,190.927,37.127L193.482,31.381L178.343,24.637L175.779,30.379C172.902,29.904,169.94,29.809,166.964,30.142L164.713,24.275L149.241,30.211L151.491,36.078C149.056,37.821,146.917,39.873,145.096,42.15L139.35,39.596L132.606,54.735L138.348,57.299C137.873,60.176,137.785,63.136,138.111,66.114L132.244,68.365L138.18,83.837L144.047,81.587C145.796,84.019,147.841,86.161,150.119,87.982L147.565,93.728L162.704,100.472L165.267,94.73C168.144,95.205,171.105,95.293,174.083,94.967L176.334,100.834L191.806,94.898L189.556,89.031C191.988,87.282,194.129,85.236,195.95,82.959L201.697,85.513L208.441,70.374L202.698,67.81C203.173,64.933,203.269,61.971,202.936,58.995L208.802,56.744Z" /></g></g></g></g></g><g transform="matrix(1,0,0,1,500,362)" id="Layer 5"><g id="Group 1"><g id="Group 1"><path fill="#0097d8" fill-opacity="1" d="M-155.462,-329.974C-117.362,-330.203,-86.291,-299.502,-86.063,-261.402C-85.834,-223.302,-116.535,-192.232,-154.635,-192.003C-192.735,-191.775,-223.805,-222.475,-224.034,-260.575C-224.262,-298.675,-193.562,-329.746,-155.462,-329.974Z" /></g></g></g><g id="Layer 6"><g transform="translate(344.951,100.157)"><g transform="rotate(0)"><animateTransform repeatCount="indefinite" type="rotate" attributeName="transform" dur="5.967s" begin="0s" calcMode="spline" values="0; 360" keyTimes="0; 1" keySplines="0 0 1 1" fill="freeze" /><g transform="scale(1,1) translate(155.049,261.843)"><g id="Group 1"><path fill="#ffffff" fill-opacity="1" d="M-152.745,-261.843L-157.353,-261.843L-157.353,-319.779L-152.745,-319.779L-152.745,-261.843Z" /></g></g></g></g></g><g id="Layer 7"><g transform="translate(343.701,102.282)"><g transform="rotate(0)"><animateTransform repeatCount="indefinite" type="rotate" attributeName="transform" dur="5.967s" begin="0s" calcMode="spline" values="0; 720" keyTimes="0; 1" keySplines="0 0 1 1" fill="freeze" /><g transform="scale(1,1) translate(156.299,259.718)"><g id="Group 1"><path fill="#ffffff" fill-opacity="1" d="M-157.671,-261.843L-155.049,-258.054L-203.334,-224.631L-205.957,-228.42L-157.671,-261.843Z" /></g></g></g></g></g><g transform="matrix(1,0,0,1,500,362)" id="Layer 8"><g id="Group 1"><path fill="#ffffff" fill-opacity="1" d="M-148.699,-260.989C-148.699,-257.482,-151.542,-254.639,-155.049,-254.639C-158.556,-254.639,-161.398,-257.482,-161.398,-260.989C-161.398,-264.496,-158.556,-267.338,-155.049,-267.338C-151.542,-267.338,-148.699,-264.496,-148.699,-260.989Z" /></g></g><g id="Layer 9"><g transform="translate(485.825,671.259)"><g transform="rotate(-2)"><animateTransform repeatCount="indefinite" type="rotate" attributeName="transform" dur="5.967s" begin="0s" calcMode="spline" values="-2; 2; -2; 2; -2" keyTimes="0; 0.25; 0.5; 0.75; 1" keySplines="0.333 0 0.667 1; 0.333 0 0.667 1; 0.333 0 0.667 1; 0.333 0 0.667 1" fill="freeze" /><g transform="scale(1,1) translate(14.175,-309.259)"><g id="Group 5"><g id="Group 2"><path fill="#a2c7eb" fill-opacity="1" d="M32.243,206.141C28.153,143.073,55.745,77.801,102.22,40.46C103.661,103.846,76.344,167.995,32.243,206.141Z" /></g><g id="Group 1"><path stroke-linejoin="miter" stroke-linecap="round" stroke-width="1" stroke-opacity="1" stroke="#6f8bbf" d="M94.634,57.435C75.052,93.928,58.12,132.116,44.048,171.513C26.946,219.344,13.488,270.163,-15.8,310.259" /></g></g><g id="Group 4"><g id="Group 2"><path fill="#a2c7eb" fill-opacity="1" d="M17.578,245.813C41.101,193.192,87.789,153.436,139.265,142.183C117.352,198.576,68.058,241.596,17.578,245.813Z" /></g><g id="Group 1"><path stroke-linejoin="miter" stroke-linecap="round" stroke-width="1" stroke-opacity="1" stroke="#6f8bbf" d="M126.634,153.775C91.476,184.716,55.725,214.788,19.38,243.97" /></g></g><g id="Group 3"><g id="Group 2"><path fill="#a2c7eb" fill-opacity="1" d="M3.697,291.653C35.125,244.712,93.108,220.213,141.087,233.607C105.802,279.955,47.692,304.517,3.697,291.653Z" /></g><g id="Group 1"><path stroke-linejoin="miter" stroke-linecap="round" stroke-width="1" stroke-opacity="1" stroke="#6f8bbf" d="M129.58,236.997C88.382,262.767,43.942,281.798,-1.876,293.242" /></g></g><g id="Group 2"><g id="Group 2"><path fill="#a2c7eb" fill-opacity="1" d="M20.672,229.856C30.717,177.002,15.649,118.088,-17.898,79.115C-31.652,131.057,-18.534,191.922,20.672,229.856Z" /></g><g id="Group 1"><path stroke-linejoin="miter" stroke-linecap="round" stroke-width="1" stroke-opacity="1" stroke="#6f8bbf" d="M-14.443,92.593C-7.831,141.759,3.931,187.81,22.156,232.823" /></g></g><g id="Group 1"><g id="Group 2"><path fill="#a2c7eb" fill-opacity="1" d="M3.422,274.868C-0.859,220.531,-28.705,169.5,-69.437,141.335C-67.085,170.114,-59.434,197.855,-47.291,223.074C-33.325,252.044,-12.811,270.418,3.422,274.868Z" /></g><g id="Group 1"><path stroke-linejoin="miter" stroke-linecap="round" stroke-width="1" stroke-opacity="1" stroke="#6f8bbf" d="M-63.398,152.334C-47.377,197.643,-24.319,239.647,4.439,276.013" /></g></g></g></g></g></g><g id="Layer 10"><g transform="translate(733.285,695.712)"><g transform="rotate(2)"><animateTransform repeatCount="indefinite" type="rotate" attributeName="transform" dur="5.967s" begin="0s" calcMode="spline" values="2; -2; 2; -2; 2" keyTimes="0; 0.25; 0.5; 0.75; 1" keySplines="0.333 0 0.667 1; 0.333 0 0.667 1; 0.333 0 0.667 1; 0.333 0 0.667 1" fill="freeze" /><g transform="scale(1,1) translate(-233.285,-333.712)"><g id="Group 5"><g id="Group 2"><path fill="#a2c7eb" fill-opacity="1" d="M317.98,261.835C340.211,204.001,391.347,157.082,447.74,142.798C423.03,199.848,372.593,245.835,317.98,261.835Z" /></g><g id="Group 1"><path stroke-linejoin="miter" stroke-linecap="round" stroke-width="1" stroke-opacity="1" stroke="#6f8bbf" d="M434.071,154.814C401.816,179.334,371.172,206.439,342.605,235.79C307.892,271.435,275.15,311.192,232.829,334.97" /></g></g><g id="Group 4"><g id="Group 2"><path fill="#a2c7eb" fill-opacity="1" d="M288.755,291.186C331.118,253.909,388.677,237.548,438.776,248.526C396.307,289.83,335.103,308.034,288.755,291.186Z" /></g><g id="Group 1"><path stroke-linejoin="miter" stroke-linecap="round" stroke-width="1" stroke-opacity="1" stroke="#6f8bbf" d="M422.861,253.718C379.099,266.942,335.167,279.128,291.087,290.296" /></g></g><g id="Group 3"><g id="Group 2"><path fill="#a2c7eb" fill-opacity="1" d="M257.687,326.366C304.713,297.375,366.002,299.218,402.919,330.731C352.736,357.603,291.298,355.76,257.687,326.366Z" /></g><g id="Group 1"><path stroke-linejoin="miter" stroke-linecap="round" stroke-width="1" stroke-opacity="1" stroke="#6f8bbf" d="M391.369,329.036C344.407,335.182,297.296,333.995,252.135,325.497" /></g></g><g id="Group 2"><g id="Group 2"><path fill="#a2c7eb" fill-opacity="1" d="M298.038,278.238C328.576,235.26,339.405,176.62,325.736,128.217C292.273,168.864,278.922,228.436,298.038,278.238Z" /></g><g id="Group 1"><path stroke-linejoin="miter" stroke-linecap="round" stroke-width="1" stroke-opacity="1" stroke="#6f8bbf" d="M323.257,141.611C308.931,188.107,300.475,233.924,298.144,281.48" /></g></g><g id="Group 1"><g id="Group 2"><path fill="#a2c7eb" fill-opacity="1" d="M264.342,311.298C282.822,261.157,279.134,204.319,254.678,162.612C244.972,189.208,240.352,217.034,240.755,244.457C241.2,275.949,251.796,300.702,264.342,311.298Z" /></g><g id="Group 1"><path stroke-linejoin="miter" stroke-linecap="round" stroke-width="1" stroke-opacity="1" stroke="#6f8bbf" d="M255.483,174.862C251.075,221.761,254.234,268.596,264.745,312.718" /></g></g></g></g></g></g><g id="Layer 11"><g transform="translate(272.828,679.335)"><g transform="rotate(2)"><animateTransform repeatCount="indefinite" type="rotate" attributeName="transform" dur="5.967s" begin="0s" calcMode="spline" values="2; -2; 2; -2; 2" keyTimes="0; 0.25; 0.5; 0.75; 1" keySplines="0.333 0 0.667 1; 0.333 0 0.667 1; 0.333 0 0.667 1; 0.333 0 0.667 1" fill="freeze" /><g transform="scale(1,1) translate(227.172,-317.335)"><g id="Group 8"><path fill="#a2c7eb" fill-opacity="1" d="M-312.075,160.716C-334.739,91.399,-397.982,35.39,-471.556,19.494C-440.625,79.464,-384.521,127.191,-312.075,160.716Z" /></g><g id="Group 7"><path fill="#a2c7eb" fill-opacity="1" d="M-308.237,171.471C-357.879,143.397,-420.079,137.208,-474,154.953C-423.989,179.934,-364.729,186.894,-308.237,171.471Z" /></g><g id="Group 6"><path fill="#a2c7eb" fill-opacity="1" d="M-294.506,186.502C-348.16,179.066,-404.344,192.292,-447.917,222.607C-398.509,240.568,-339.231,228.919,-294.506,186.502Z" /></g><g id="Group 5"><path fill="#a2c7eb" fill-opacity="1" d="M-277.779,219.338C-330.909,219.117,-383.149,244.369,-414.379,285.369C-390.733,290.107,-365.623,287.275,-343.93,277.451C-322.236,267.627,-304.061,250.861,-277.779,219.338Z" /></g><g id="Group 4"><path fill="#a2c7eb" fill-opacity="1" d="M-240.321,274.281C-292.711,265.299,-348.53,281.534,-386.307,316.744C-363.759,325.308,-338.512,326.676,-315.443,320.593C-292.373,314.51,-271.602,301,-240.321,274.281Z" /></g><g id="Group 3"><path fill="#a2c7eb" fill-opacity="1" d="M-296.881,164.001C-331.475,117.372,-340.865,54.536,-321.21,1.08C-306.201,26.496,-293.251,53.368,-287.207,81.931C-281.163,110.494,-282.336,140.95,-296.881,164.001Z" /></g><g id="Group 2"><path fill="#a2c7eb" fill-opacity="1" d="M-275.744,208.989C-283.938,159.448,-266.999,106.942,-231.219,71.063C-227.102,122.316,-242.784,174.529,-275.744,208.989Z" /></g><g id="Group 1"><g id="Group 7"><path stroke-linejoin="miter" stroke-linecap="round" stroke-width="1" stroke-opacity="1" stroke="#6f8bbf" d="M-455.45,31.916C-350.158,99.284,-267.813,199.701,-224.345,313.787" /></g><g id="Group 6"><path stroke-linejoin="miter" stroke-linecap="round" stroke-width="1" stroke-opacity="1" stroke="#6f8bbf" d="M-317.939,25.662C-305.133,77.666,-297.34,130.758,-294.704,184.008" /></g><g id="Group 5"><path stroke-linejoin="miter" stroke-linecap="round" stroke-width="1" stroke-opacity="1" stroke="#6f8bbf" d="M-239.086,91.177C-243.281,133.134,-256.248,174.142,-276.962,211.078" /></g><g id="Group 4"><path stroke-linejoin="miter" stroke-linecap="round" stroke-width="1" stroke-opacity="1" stroke="#6f8bbf" d="M-451.836,156.164C-403.564,165.343,-354.5,170.319,-305.426,171.049" /></g><g id="Group 3"><path stroke-linejoin="miter" stroke-linecap="round" stroke-width="1" stroke-opacity="1" stroke="#6f8bbf" d="M-422.748,218.486C-378.237,215.253,-334.448,204.469,-293.97,186.757" /></g><g id="Group 2"><path stroke-linejoin="miter" stroke-linecap="round" stroke-width="1" stroke-opacity="1" stroke="#6f8bbf" d="M-396.081,277.885C-355.01,257.398,-313.935,236.887,-272.864,216.4" /></g><g id="Group 1"><path stroke-linejoin="miter" stroke-linecap="round" stroke-width="1" stroke-opacity="1" stroke="#6f8bbf" d="M-369.369,314.062C-315.745,303.715,-299.814,291.369,-240.298,274.284" /></g></g></g></g></g></g><g id="body"><g transform="translate(260.868,705.495)"><animateTransform repeatCount="indefinite" type="translate" attributeName="transform" dur="5.667s" begin="0s" calcMode="spline" values="260.868 705.495; 260.868 708.495; 260.868 705.495; 260.868 705.495; 260.868 706.245; 260.868 705.495; 260.868 705.495; 260.868 706.245; 260.868 705.495; 260.868 705.495; 260.868 708.495; 260.868 705.495; 260.868 705.495; 260.868 708.495; 260.868 705.495; 260.868 705.495; 260.868 706.245; 260.868 705.495; 260.868 705.495; 260.868 706.245; 260.868 705.495; 260.868 705.495; 260.868 708.495; 260.868 705.495" keyTimes="0; 0.055; 0.111; 0.122; 0.16; 0.197; 0.273; 0.311; 0.349; 0.36; 0.415; 0.471; 0.529; 0.585; 0.64; 0.651; 0.689; 0.727; 0.803; 0.84; 0.878; 0.889; 0.945; 1" keySplines="0.333 0 0.667 1; 0.333 0 0.667 1; 0.333 0 0.667 1; 0.333 0 0.667 1; 0.333 0 0.667 1; 0 0 1 1; 0.333 0 0.667 1; 0.333 0 0.667 1; 0 0 1 1; 0.333 0 0.667 1; 0.333 0 0.667 1; 0 0 1 1; 0.333 0 0.667 1; 0.333 0 0.667 1; 0 0 1 1; 0.333 0 0.667 1; 0.333 0 0.667 1; 0 0 1 1; 0.333 0 0.667 1; 0.333 0 0.667 1; 0 0 1 1; 0.333 0 0.667 1; 0.333 0 0.667 1" fill="freeze" /><g transform="rotate(-3)"><animateTransform repeatCount="indefinite" type="rotate" attributeName="transform" dur="5.667s" begin="0s" calcMode="spline" values="-3; 3; 3; 2; 2; 3; 3; -3; -3; 3; 3; 2; 2; 3; 3; -3" keyTimes="0; 0.111; 0.122; 0.197; 0.273; 0.349; 0.36; 0.471; 0.529; 0.64; 0.651; 0.727; 0.803; 0.878; 0.889; 1" keySplines="0.333 0 0.667 1; 0.333 0 0.667 1; 0.333 0 0.667 1; 0.297 0 0.667 1; 0.333 0 0.667 1; 0.31 0 0.667 1; 0.333 0 0.667 1; 0.235 0 0.667 1; 0.333 0 0.667 1; 0.333 0 0.667 1; 0.333 0 0.667 1; 0.297 0 0.667 1; 0.333 0 0.667 1; 0.31 0 0.667 1; 0.333 0 0.667 1" fill="freeze" /><g transform="scale(1,1) translate(239.132,-343.495)"><g id="l arm"><g transform="translate(-89.802,78.38)"><g transform="rotate(-7)"><animateTransform repeatCount="indefinite" type="rotate" attributeName="transform" dur="5.667s" begin="0s" calcMode="spline" values="-7; 0; 0; -7; -7; 0; 0; -7" keyTimes="0; 0.111; 0.36; 0.471; 0.529; 0.64; 0.889; 1" keySplines="0.333 0 0.667 1; 0.297 0 0.667 1; 0.333 0 0.667 1; 0.235 0 0.667 1; 0.333 0 0.667 1; 0.297 0 0.667 1; 0.333 0 0.667 1" fill="freeze" /><g transform="scale(1,1) translate(89.802,-78.38)"><g id="l hand"><g transform="translate(-29.758,215.485)"><g transform="rotate(-4)"><animateTransform repeatCount="indefinite" type="rotate" attributeName="transform" dur="5.667s" begin="0s" calcMode="spline" values="-4; 0; 0; -4; -4; 0; 0; -4" keyTimes="0; 0.111; 0.36; 0.471; 0.529; 0.64; 0.889; 1" keySplines="0.333 0 0.667 1; 0.297 0 0.667 1; 0.333 0 0.667 1; 0.235 0 0.667 1; 0.333 0 0.667 1; 0.297 0 0.667 1; 0.333 0 0.667 1" fill="freeze" /><g transform="scale(1,1) translate(29.758,-215.485)"><g id="Group 1"><path fill="#e06a58" fill-opacity="1" d="M-29.893,215.848C-29.893,215.848,-25.251,258.381,-20.059,261.793C-10.777,267.918,96.668,282.074,96.668,282.074L93.15,310.026C93.15,310.026,-54.009,323.251,-60.261,315.897C-71.111,303.139,-90.185,241.596,-90.185,241.596L-29.893,215.848Z" /></g></g></g></g></g></g></g></g></g></g></g></g></g><g id="body"><g transform="translate(260.868,705.495)"><animateTransform repeatCount="indefinite" type="translate" attributeName="transform" dur="5.667s" begin="0s" calcMode="spline" values="260.868 705.495; 260.868 708.495; 260.868 705.495; 260.868 705.495; 260.868 706.245; 260.868 705.495; 260.868 705.495; 260.868 706.245; 260.868 705.495; 260.868 705.495; 260.868 708.495; 260.868 705.495; 260.868 705.495; 260.868 708.495; 260.868 705.495; 260.868 705.495; 260.868 706.245; 260.868 705.495; 260.868 705.495; 260.868 706.245; 260.868 705.495; 260.868 705.495; 260.868 708.495; 260.868 705.495" keyTimes="0; 0.055; 0.111; 0.122; 0.16; 0.197; 0.273; 0.311; 0.349; 0.36; 0.415; 0.471; 0.529; 0.585; 0.64; 0.651; 0.689; 0.727; 0.803; 0.84; 0.878; 0.889; 0.945; 1" keySplines="0.333 0 0.667 1; 0.333 0 0.667 1; 0.333 0 0.667 1; 0.333 0 0.667 1; 0.333 0 0.667 1; 0 0 1 1; 0.333 0 0.667 1; 0.333 0 0.667 1; 0 0 1 1; 0.333 0 0.667 1; 0.333 0 0.667 1; 0 0 1 1; 0.333 0 0.667 1; 0.333 0 0.667 1; 0 0 1 1; 0.333 0 0.667 1; 0.333 0 0.667 1; 0 0 1 1; 0.333 0 0.667 1; 0.333 0 0.667 1; 0 0 1 1; 0.333 0 0.667 1; 0.333 0 0.667 1" fill="freeze" /><g transform="rotate(-3)"><animateTransform repeatCount="indefinite" type="rotate" attributeName="transform" dur="5.667s" begin="0s" calcMode="spline" values="-3; 3; 3; 2; 2; 3; 3; -3; -3; 3; 3; 2; 2; 3; 3; -3" keyTimes="0; 0.111; 0.122; 0.197; 0.273; 0.349; 0.36; 0.471; 0.529; 0.64; 0.651; 0.727; 0.803; 0.878; 0.889; 1" keySplines="0.333 0 0.667 1; 0.333 0 0.667 1; 0.333 0 0.667 1; 0.297 0 0.667 1; 0.333 0 0.667 1; 0.31 0 0.667 1; 0.333 0 0.667 1; 0.235 0 0.667 1; 0.333 0 0.667 1; 0.333 0 0.667 1; 0.333 0 0.667 1; 0.297 0 0.667 1; 0.333 0 0.667 1; 0.31 0 0.667 1; 0.333 0 0.667 1" fill="freeze" /><g transform="scale(1,1) translate(239.132,-343.495)"><g id="l arm"><g transform="translate(-89.802,78.38)"><g transform="rotate(-7)"><animateTransform repeatCount="indefinite" type="rotate" attributeName="transform" dur="5.667s" begin="0s" calcMode="spline" values="-7; 0; 0; -7; -7; 0; 0; -7" keyTimes="0; 0.111; 0.36; 0.471; 0.529; 0.64; 0.889; 1" keySplines="0.333 0 0.667 1; 0.297 0 0.667 1; 0.333 0 0.667 1; 0.235 0 0.667 1; 0.333 0 0.667 1; 0.297 0 0.667 1; 0.333 0 0.667 1" fill="freeze" /><g transform="scale(1,1) translate(89.802,-78.38)"><g id="Group 1"><path fill="#f2ae30" fill-opacity="1" d="M-100.844,106.347L-88.956,77.801C-88.956,77.801,-56.701,92.953,-46.062,111.666C-34.682,131.672,-20.759,238.036,-20.759,238.036C-20.759,238.036,-77.702,251.154,-88.171,245.58C-98.64,240.006,-100.844,106.347,-100.844,106.347Z" /></g></g></g></g></g></g></g></g></g><g id="body"><g transform="translate(260.868,705.495)"><animateTransform repeatCount="indefinite" type="translate" attributeName="transform" dur="5.667s" begin="0s" calcMode="spline" values="260.868 705.495; 260.868 708.495; 260.868 705.495; 260.868 705.495; 260.868 706.245; 260.868 705.495; 260.868 705.495; 260.868 706.245; 260.868 705.495; 260.868 705.495; 260.868 708.495; 260.868 705.495; 260.868 705.495; 260.868 708.495; 260.868 705.495; 260.868 705.495; 260.868 706.245; 260.868 705.495; 260.868 705.495; 260.868 706.245; 260.868 705.495; 260.868 705.495; 260.868 708.495; 260.868 705.495" keyTimes="0; 0.055; 0.111; 0.122; 0.16; 0.197; 0.273; 0.311; 0.349; 0.36; 0.415; 0.471; 0.529; 0.585; 0.64; 0.651; 0.689; 0.727; 0.803; 0.84; 0.878; 0.889; 0.945; 1" keySplines="0.333 0 0.667 1; 0.333 0 0.667 1; 0.333 0 0.667 1; 0.333 0 0.667 1; 0.333 0 0.667 1; 0 0 1 1; 0.333 0 0.667 1; 0.333 0 0.667 1; 0 0 1 1; 0.333 0 0.667 1; 0.333 0 0.667 1; 0 0 1 1; 0.333 0 0.667 1; 0.333 0 0.667 1; 0 0 1 1; 0.333 0 0.667 1; 0.333 0 0.667 1; 0 0 1 1; 0.333 0 0.667 1; 0.333 0 0.667 1; 0 0 1 1; 0.333 0 0.667 1; 0.333 0 0.667 1" fill="freeze" /><g transform="rotate(-3)"><animateTransform repeatCount="indefinite" type="rotate" attributeName="transform" dur="5.667s" begin="0s" calcMode="spline" values="-3; 3; 3; 2; 2; 3; 3; -3; -3; 3; 3; 2; 2; 3; 3; -3" keyTimes="0; 0.111; 0.122; 0.197; 0.273; 0.349; 0.36; 0.471; 0.529; 0.64; 0.651; 0.727; 0.803; 0.878; 0.889; 1" keySplines="0.333 0 0.667 1; 0.333 0 0.667 1; 0.333 0 0.667 1; 0.297 0 0.667 1; 0.333 0 0.667 1; 0.31 0 0.667 1; 0.333 0 0.667 1; 0.235 0 0.667 1; 0.333 0 0.667 1; 0.333 0 0.667 1; 0.333 0 0.667 1; 0.297 0 0.667 1; 0.333 0 0.667 1; 0.31 0 0.667 1; 0.333 0 0.667 1" fill="freeze" /><g transform="scale(1,1) translate(239.132,-343.495)"><g id="head"><g transform="translate(-182.438,16.708)"><animateTransform repeatCount="indefinite" type="translate" attributeName="transform" dur="5.667s" begin="0s" calcMode="spline" values="-182.438 16.708; -181.938 19.208; -182.438 16.708; -182.438 16.708; -182.384 17.957; -182.438 16.708; -182.438 16.708; -182.384 17.957; -182.438 16.708; -182.438 16.708; -181.938 19.208; -182.438 16.708; -182.438 16.708; -181.938 19.208; -182.438 16.708; -182.438 16.708; -182.384 17.957; -182.438 16.708; -182.438 16.708; -182.384 17.957; -182.438 16.708; -182.438 16.708; -181.938 19.208; -182.438 16.708" keyTimes="0; 0.055; 0.111; 0.122; 0.16; 0.197; 0.273; 0.311; 0.349; 0.36; 0.415; 0.471; 0.529; 0.585; 0.64; 0.651; 0.689; 0.727; 0.803; 0.84; 0.878; 0.889; 0.945; 1" keySplines="0.333 0 0.667 1; 0.333 0 0.667 1; 0 0 1 1; 0.333 0 0.667 1; 0.333 0 0.667 1; 0 0 1 1; 0.333 0 0.667 1; 0.333 0 0.667 1; 0 0 1 1; 0.333 0 0.667 1; 0.333 0 0.667 1; 0.137 0 0.667 1; 0.333 0 0.667 1; 0.333 0 0.667 1; 0 0 1 1; 0.333 0 0.667 1; 0.333 0 0.667 1; 0 0 1 1; 0.333 0 0.667 1; 0.333 0 0.667 1; 0 0 1 1; 0.333 0 0.667 1; 0.333 0 0.667 1" fill="freeze" /><g transform="rotate(-6)"><animateTransform repeatCount="indefinite" type="rotate" attributeName="transform" dur="5.667s" begin="0s" calcMode="spline" values="-6; 5; 5; 0; 0; 5; 5; -6; -6; 5; 5; 0; 0; 5; 5; -6" keyTimes="0; 0.111; 0.122; 0.197; 0.273; 0.349; 0.36; 0.471; 0.529; 0.64; 0.651; 0.727; 0.803; 0.878; 0.889; 1" keySplines="0.333 0 0.667 1; 0.333 0 0.667 1; 0.333 0 0.833 1; 0.167 0 0.833 1; 0.167 0 0.667 1; 0.31 0 0.667 1; 0.333 0 0.667 1; 0.235 0 0.667 1; 0.333 0 0.667 1; 0.333 0 0.667 1; 0.333 0 0.833 1; 0.167 0 0.833 1; 0.167 0 0.667 1; 0.31 0 0.667 1; 0.333 0 0.667 1" fill="freeze" /><g transform="scale(1,1) translate(182.438,-16.708)"><g transform="matrix(1,0,0,1,0,0)" id="hair"><g id="Group 1"><path fill="#0a2240" fill-opacity="1" d="M-191.399,-26.148C-199.728,-29.2,-208.544,-31.87,-217.466,-31.192C-226.388,-30.514,-235.5,-25.787,-238.531,-17.946C-240.693,-12.394,-239.697,-5.845,-243.109,-0.844C-246.373,3.945,-252.857,5.937,-258.918,6.34C-265,6.764,-271.125,5.959,-277.165,6.743C-295.814,9.223,-309.123,29.482,-302.998,46.076C-300.561,52.688,-295.56,59.003,-296.704,65.891C-297.912,73.266,-305.647,78.119,-308.826,84.964C-313.043,94.077,-308,105.118,-299.671,111.327C-291.342,117.515,-280.513,119.868,-270.002,121.436C-255.528,123.597,-240.587,124.615,-226.282,121.563C-211.977,118.511,-198.308,110.967,-190.912,99.184C-187.627,93.971,-185.635,88.078,-181.82,83.183C-173.936,73.074,-159.971,69.154,-148.972,61.991C-136.956,54.129,-128.14,38.828,-135.218,26.854C-142.042,15.347,-159.801,12.783,-166.922,1.445C-169.868,-3.239,-170.568,-8.813,-172.475,-13.92C-174.425,-19.049,-179.086,-21.634,-191.399,-26.148Z" /></g></g></g></g></g></g></g></g></g></g><g id="body"><g transform="translate(260.868,705.495)"><animateTransform repeatCount="indefinite" type="translate" attributeName="transform" dur="5.667s" begin="0s" calcMode="spline" values="260.868 705.495; 260.868 708.495; 260.868 705.495; 260.868 705.495; 260.868 706.245; 260.868 705.495; 260.868 705.495; 260.868 706.245; 260.868 705.495; 260.868 705.495; 260.868 708.495; 260.868 705.495; 260.868 705.495; 260.868 708.495; 260.868 705.495; 260.868 705.495; 260.868 706.245; 260.868 705.495; 260.868 705.495; 260.868 706.245; 260.868 705.495; 260.868 705.495; 260.868 708.495; 260.868 705.495" keyTimes="0; 0.055; 0.111; 0.122; 0.16; 0.197; 0.273; 0.311; 0.349; 0.36; 0.415; 0.471; 0.529; 0.585; 0.64; 0.651; 0.689; 0.727; 0.803; 0.84; 0.878; 0.889; 0.945; 1" keySplines="0.333 0 0.667 1; 0.333 0 0.667 1; 0.333 0 0.667 1; 0.333 0 0.667 1; 0.333 0 0.667 1; 0 0 1 1; 0.333 0 0.667 1; 0.333 0 0.667 1; 0 0 1 1; 0.333 0 0.667 1; 0.333 0 0.667 1; 0 0 1 1; 0.333 0 0.667 1; 0.333 0 0.667 1; 0 0 1 1; 0.333 0 0.667 1; 0.333 0 0.667 1; 0 0 1 1; 0.333 0 0.667 1; 0.333 0 0.667 1; 0 0 1 1; 0.333 0 0.667 1; 0.333 0 0.667 1" fill="freeze" /><g transform="rotate(-3)"><animateTransform repeatCount="indefinite" type="rotate" attributeName="transform" dur="5.667s" begin="0s" calcMode="spline" values="-3; 3; 3; 2; 2; 3; 3; -3; -3; 3; 3; 2; 2; 3; 3; -3" keyTimes="0; 0.111; 0.122; 0.197; 0.273; 0.349; 0.36; 0.471; 0.529; 0.64; 0.651; 0.727; 0.803; 0.878; 0.889; 1" keySplines="0.333 0 0.667 1; 0.333 0 0.667 1; 0.333 0 0.667 1; 0.297 0 0.667 1; 0.333 0 0.667 1; 0.31 0 0.667 1; 0.333 0 0.667 1; 0.235 0 0.667 1; 0.333 0 0.667 1; 0.333 0 0.667 1; 0.333 0 0.667 1; 0.297 0 0.667 1; 0.333 0 0.667 1; 0.31 0 0.667 1; 0.333 0 0.667 1" fill="freeze" /><g transform="scale(1,1) translate(239.132,-343.495)"><g id="Group 2"><g id="Group 2"><path fill="#f9a07b" fill-opacity="1" d="M-142.869,115.014C-140.771,117.43,-138.291,120.079,-134.858,120.312C-131.234,120.566,-128.204,118.003,-125.873,115.523C-113.836,102.786,-105.888,87.146,-102.667,71.019C-105.655,69.324,-108.537,67.692,-111.144,66.166C-113.56,64.725,-115.383,62.711,-116.421,60.359C-117.142,58.621,-117.396,56.799,-117.205,54.892C-115.51,38.955,-114.005,30.076,-108.41,13.906C-134.985,7.909,-160.056,0.787,-174.467,-11.25C-176.226,-3.833,-178.303,10.684,-182.732,25.074C-187.458,40.311,-194.833,55.379,-207.336,61.864C-182.795,76.36,-160.904,94.373,-142.869,115.014Z" /></g><g id="Group 1"><path fill="#e06a58" fill-opacity="1" d="M-117.205,54.913C-117.396,56.82,-117.142,58.664,-116.421,60.381C-132.146,79.454,-167.304,54.531,-182.732,25.095C-178.303,10.705,-176.226,-3.811,-174.467,-11.228C-160.077,0.809,-134.985,7.951,-108.41,13.927C-114.005,30.097,-115.51,38.955,-117.205,54.913Z" /></g></g><g id="Group 1"><g id="Group 3"><path fill="#ffc73c" fill-opacity="1" d="M-73.422,285.486C-76.898,308.501,-52.06,333.274,-51.445,345.566C-104.193,345.566,-214.689,348.787,-270.955,341.137C-273.519,326.938,-245.736,295.001,-245.736,263.467C-245.736,259.292,-245.906,254.715,-246.245,249.798C-247.135,235.726,-249.212,218.984,-251.522,201.818C-257.795,155.767,-266.145,106.517,-259.978,96.302C-247.898,76.402,-219.649,62.882,-205.641,57.075C-200.83,55.083,-197.693,54.001,-197.46,53.874C-179.892,83.84,-144.141,109.398,-130.641,108.254C-126.89,107.957,-115.764,104.079,-108.41,67.056C-105.549,68.688,-102.688,70.193,-99.848,71.655C-85.882,78.924,-72.786,84.921,-69.014,94.267C-59.054,118.871,-49.283,180.902,-51.445,202.963C-53.628,225.215,-62.571,242.211,-68.844,264.548C-70.306,269.783,-71.641,275.335,-72.722,281.311C-72.997,282.646,-73.21,284.045,-73.422,285.486Z" /></g><g id="Group 2"><path fill="#ffbb33" fill-opacity="1" d="M-51.445,345.566C-104.193,345.566,-214.689,348.787,-270.955,341.137C-273.519,326.938,-245.736,295.001,-245.736,263.467C-245.736,259.292,-245.906,254.715,-246.245,249.798C-247.135,235.726,-249.212,218.984,-251.522,201.818C-241.54,212.351,-226.981,167.847,-220.539,180.88C-185.678,251.239,-158.191,269.74,-110.423,269.74C-96.182,269.74,-83.043,267.769,-68.844,264.548C-70.306,269.783,-71.641,275.335,-72.722,281.311C-72.976,282.667,-73.21,284.066,-73.422,285.507C-76.897,308.479,-52.06,333.253,-51.445,345.566Z" /></g><g id="Group 1"><path fill="#fce172" fill-opacity="1" d="M-99.848,71.655C-102.116,88.121,-108.834,110.31,-128.373,116.159C-154.779,124.064,-192.989,74.728,-205.641,57.075C-200.83,55.083,-197.693,54.001,-197.46,53.874C-179.892,83.84,-144.141,109.398,-130.641,108.254C-126.89,107.957,-115.764,104.079,-108.41,67.056C-105.549,68.667,-102.688,70.172,-99.848,71.655Z" /></g></g></g></g></g></g><g id="body"><g transform="translate(260.868,705.495)"><animateTransform repeatCount="indefinite" type="translate" attributeName="transform" dur="5.667s" begin="0s" calcMode="spline" values="260.868 705.495; 260.868 708.495; 260.868 705.495; 260.868 705.495; 260.868 706.245; 260.868 705.495; 260.868 705.495; 260.868 706.245; 260.868 705.495; 260.868 705.495; 260.868 708.495; 260.868 705.495; 260.868 705.495; 260.868 708.495; 260.868 705.495; 260.868 705.495; 260.868 706.245; 260.868 705.495; 260.868 705.495; 260.868 706.245; 260.868 705.495; 260.868 705.495; 260.868 708.495; 260.868 705.495" keyTimes="0; 0.055; 0.111; 0.122; 0.16; 0.197; 0.273; 0.311; 0.349; 0.36; 0.415; 0.471; 0.529; 0.585; 0.64; 0.651; 0.689; 0.727; 0.803; 0.84; 0.878; 0.889; 0.945; 1" keySplines="0.333 0 0.667 1; 0.333 0 0.667 1; 0.333 0 0.667 1; 0.333 0 0.667 1; 0.333 0 0.667 1; 0 0 1 1; 0.333 0 0.667 1; 0.333 0 0.667 1; 0 0 1 1; 0.333 0 0.667 1; 0.333 0 0.667 1; 0 0 1 1; 0.333 0 0.667 1; 0.333 0 0.667 1; 0 0 1 1; 0.333 0 0.667 1; 0.333 0 0.667 1; 0 0 1 1; 0.333 0 0.667 1; 0.333 0 0.667 1; 0 0 1 1; 0.333 0 0.667 1; 0.333 0 0.667 1" fill="freeze" /><g transform="rotate(-3)"><animateTransform repeatCount="indefinite" type="rotate" attributeName="transform" dur="5.667s" begin="0s" calcMode="spline" values="-3; 3; 3; 2; 2; 3; 3; -3; -3; 3; 3; 2; 2; 3; 3; -3" keyTimes="0; 0.111; 0.122; 0.197; 0.273; 0.349; 0.36; 0.471; 0.529; 0.64; 0.651; 0.727; 0.803; 0.878; 0.889; 1" keySplines="0.333 0 0.667 1; 0.333 0 0.667 1; 0.333 0 0.667 1; 0.297 0 0.667 1; 0.333 0 0.667 1; 0.31 0 0.667 1; 0.333 0 0.667 1; 0.235 0 0.667 1; 0.333 0 0.667 1; 0.333 0 0.667 1; 0.333 0 0.667 1; 0.297 0 0.667 1; 0.333 0 0.667 1; 0.31 0 0.667 1; 0.333 0 0.667 1" fill="freeze" /><g transform="scale(1,1) translate(239.132,-343.495)"><g id="head"><g transform="translate(-182.438,16.708)"><animateTransform repeatCount="indefinite" type="translate" attributeName="transform" dur="5.667s" begin="0s" calcMode="spline" values="-182.438 16.708; -181.938 19.208; -182.438 16.708; -182.438 16.708; -182.384 17.957; -182.438 16.708; -182.438 16.708; -182.384 17.957; -182.438 16.708; -182.438 16.708; -181.938 19.208; -182.438 16.708; -182.438 16.708; -181.938 19.208; -182.438 16.708; -182.438 16.708; -182.384 17.957; -182.438 16.708; -182.438 16.708; -182.384 17.957; -182.438 16.708; -182.438 16.708; -181.938 19.208; -182.438 16.708" keyTimes="0; 0.055; 0.111; 0.122; 0.16; 0.197; 0.273; 0.311; 0.349; 0.36; 0.415; 0.471; 0.529; 0.585; 0.64; 0.651; 0.689; 0.727; 0.803; 0.84; 0.878; 0.889; 0.945; 1" keySplines="0.333 0 0.667 1; 0.333 0 0.667 1; 0 0 1 1; 0.333 0 0.667 1; 0.333 0 0.667 1; 0 0 1 1; 0.333 0 0.667 1; 0.333 0 0.667 1; 0 0 1 1; 0.333 0 0.667 1; 0.333 0 0.667 1; 0.137 0 0.667 1; 0.333 0 0.667 1; 0.333 0 0.667 1; 0 0 1 1; 0.333 0 0.667 1; 0.333 0 0.667 1; 0 0 1 1; 0.333 0 0.667 1; 0.333 0 0.667 1; 0 0 1 1; 0.333 0 0.667 1; 0.333 0 0.667 1" fill="freeze" /><g transform="rotate(-6)"><animateTransform repeatCount="indefinite" type="rotate" attributeName="transform" dur="5.667s" begin="0s" calcMode="spline" values="-6; 5; 5; 0; 0; 5; 5; -6; -6; 5; 5; 0; 0; 5; 5; -6" keyTimes="0; 0.111; 0.122; 0.197; 0.273; 0.349; 0.36; 0.471; 0.529; 0.64; 0.651; 0.727; 0.803; 0.878; 0.889; 1" keySplines="0.333 0 0.667 1; 0.333 0 0.667 1; 0.333 0 0.833 1; 0.167 0 0.833 1; 0.167 0 0.667 1; 0.31 0 0.667 1; 0.333 0 0.667 1; 0.235 0 0.667 1; 0.333 0 0.667 1; 0.333 0 0.667 1; 0.333 0 0.833 1; 0.167 0 0.833 1; 0.167 0 0.667 1; 0.31 0 0.667 1; 0.333 0 0.667 1" fill="freeze" /><g transform="scale(1,1) translate(182.438,-16.708)"><g id="Group 7"><g id="Group 1"><path fill="#56c4f9" fill-opacity="1" d="M-84.14,-15.695C-80.411,-35.705,-66.69,-49.932,-53.492,-47.473C-40.294,-45.013,-32.618,-26.799,-36.347,-6.789C-40.076,13.221,-53.797,27.448,-66.995,24.989C-80.193,22.529,-87.869,4.315,-84.14,-15.695Z" /></g></g><g id="Group 6"><path fill="#0b2d50" fill-opacity="1" d="M-36.314,-69.592C-38.772,-52.172,-46.55,-32.972,-57.888,-11.758C-61.872,-29.136,-64.415,-50.307,-67.933,-71.478C-71.515,-92.692,-76.07,-113.906,-83.975,-131.241C-85.755,-135.077,-87.684,-138.742,-89.782,-142.133C-85.098,-142.578,-80.352,-142.133,-75.838,-140.883C-68.781,-138.997,-62.168,-135.352,-56.764,-130.478C-47.778,-122.488,-41.761,-111.595,-38.179,-100.109C-35.233,-90.572,-34.703,-80.442,-36.314,-69.592Z" /></g><g id="Group 5"><g id="Group 2"><path fill="#f9a07b" fill-opacity="1" d="M-49.623,-51.579C-49.75,-48.146,-49.983,-44.649,-50.301,-41.173C-55.133,15.199,-78.804,53.874,-115.022,53.874C-166.159,53.874,-199.304,-3.472,-199.304,-59.653C-199.304,-115.071,-165.354,-155.188,-125.618,-150.547C-102.709,-147.919,-85.968,-140.311,-74.079,-129.164C-66.217,-121.747,-60.536,-112.783,-56.658,-102.589C-52.229,-91.166,-50.089,-78.238,-49.644,-64.315C-49.644,-64.273,-49.601,-64.23,-49.601,-64.188C-49.431,-60.077,-49.475,-55.881,-49.623,-51.579Z" /></g><g id="Group 1"><path fill="#e06a58" fill-opacity="1" d="M-49.623,-51.579C-51.149,-57.025,-53.416,-62.345,-56.51,-67.113C-86.667,-51.346,-122.609,-45.264,-156.686,-51.028C-163.171,-45.624,-169.508,-40.304,-175.887,-34.985C-175.76,-60.628,-175.399,-77.984,-165.396,-90.403C-156.008,-102.059,-140.347,-106.446,-125.512,-108.353C-108.812,-110.536,-91.838,-110.451,-75.181,-108.035C-68.802,-107.145,-62.189,-105.767,-56.637,-102.546C-52.208,-91.123,-50.068,-78.196,-49.623,-64.273C-49.623,-64.231,-49.58,-64.188,-49.58,-64.146C-49.432,-60.077,-49.475,-55.881,-49.623,-51.579Z" /></g></g><g id="Group 4"><path fill="#0b2d50" fill-opacity="1" d="M-42.248,-86.292C-49.263,-80.358,-58.057,-75.441,-67.933,-71.457C-96.034,-60.119,-132.549,-56.368,-161.01,-57.746C-174.997,-27.017,-180.654,-15.996,-184.236,10.812C-197.905,-2.009,-209.031,-25.49,-212.337,-43.949C-215.601,-62.344,-215.284,-81.651,-210.155,-99.728C-202.081,-128.232,-181.714,-143.49,-167.6,-150.907C-164.082,-152.835,-160.903,-154.171,-158.445,-155.146C-140.41,-162.118,-120.087,-161.482,-101.586,-155.824C-91.498,-152.688,-83.001,-147.389,-75.859,-140.862C-61.427,-127.829,-52.504,-110.175,-46.74,-96.951C-44.917,-92.903,-43.456,-89.238,-42.248,-86.292Z" /></g><g id="Group 3"><path fill="#225570" fill-opacity="1" d="M-36.314,-69.592C-37.48,-75.759,-39.217,-81.736,-41.675,-87.5C-43.053,-90.764,-44.748,-93.921,-46.719,-96.973C-53.14,-107.061,-62.486,-115.368,-73.782,-119.034C-77.003,-123.548,-80.394,-127.616,-83.954,-131.219C-96.775,-144.252,-111.822,-151.712,-127.759,-154.319C-141.025,-156.459,-154.821,-155.251,-167.558,-150.928C-164.04,-152.856,-160.861,-154.192,-158.403,-155.167C-140.368,-162.139,-120.045,-161.503,-101.544,-155.845C-91.456,-152.709,-82.958,-147.41,-75.816,-140.883C-68.759,-138.997,-62.147,-135.352,-56.743,-130.478C-47.757,-122.488,-41.74,-111.595,-38.158,-100.109C-35.233,-90.572,-34.703,-80.442,-36.314,-69.592Z" /></g><g id="Group 2"><g id="Group 2"><g id="Group 5"><path stroke-linejoin="miter" stroke-linecap="round" stroke-width="2" stroke-opacity="1" stroke="#0b2d50" d="M-144.713,-35.027C-135.261,-40.431,-125.449,-42.869,-111.695,-37.846" /></g><g id="Group 4"><path stroke-linejoin="miter" stroke-linecap="round" stroke-width="2" stroke-opacity="1" stroke="#0b2d50" d="M-79.991,-35.409C-71.896,-41.449,-59.901,-42.063,-53.649,-35.409" /></g><g id="Group 3"><path stroke-linejoin="miter" stroke-linecap="round" stroke-width="2" stroke-opacity="1" stroke="#cc454e" d="M-89.761,-4.595C-88.934,-0.314,-89.38,9.158,-91.414,13.418" /></g><g><g transform="translate(-121.698,-7.859)"><g transform="scale(1,1)"><animateTransform repeatCount="indefinite" type="scale" attributeName="transform" dur="5.667s" begin="0s" calcMode="spline" values="1 1; 1 0; 1 1; 1 1; 1 0; 1 1; 1 1; 1 0; 1 1; 1 1; 1 0; 1 1" keyTimes="0; 0.053; 0.112; 0.359; 0.418; 0.471; 0.529; 0.582; 0.641; 0.888; 0.947; 1" keySplines="0.333 0 0.667 1; 0.333 0 0.667 1; 0.298 0 0.667 1; 0.333 0 0.667 1; 0.333 0 0.667 1; 0.318 0 0.667 1; 0.333 0 0.667 1; 0.333 0 0.667 1; 0.298 0 0.667 1; 0.333 0 0.667 1; 0.333 0 0.667 1" fill="freeze" /><g id="Group 2" transform="translate(121.698,7.859)"><path fill="#262d40" fill-opacity="1" d="M-121.698,-14.005C-119.544,-14.005,-117.798,-11.253,-117.798,-7.859C-117.798,-4.465,-119.544,-1.713,-121.698,-1.713C-123.852,-1.713,-125.597,-4.465,-125.597,-7.859C-125.597,-11.253,-123.852,-14.005,-121.698,-14.005Z" /></g></g></g></g><g><g transform="translate(-70.73,-10.72)"><g transform="scale(1,1)"><animateTransform repeatCount="indefinite" type="scale" attributeName="transform" dur="5.667s" begin="0s" calcMode="spline" values="1 1; 1 0; 1 1; 1 1; 1 0; 1 1; 1 1; 1 0; 1 1; 1 1; 1 0; 1 1" keyTimes="0; 0.053; 0.112; 0.359; 0.418; 0.471; 0.529; 0.582; 0.641; 0.888; 0.947; 1" keySplines="0.333 0 0.667 1; 0.333 0 0.667 1; 0.298 0 0.667 1; 0.333 0 0.667 1; 0.333 0 0.667 1; 0.318 0 0.667 1; 0.333 0 0.667 1; 0.333 0 0.667 1; 0.298 0 0.667 1; 0.333 0 0.667 1; 0.333 0 0.667 1" fill="freeze" /><g id="Group 1" transform="translate(70.73,10.72)"><path fill="#262d40" fill-opacity="1" d="M-70.73,-16.866C-68.576,-16.866,-66.831,-14.114,-66.831,-10.72C-66.831,-7.326,-68.576,-4.574,-70.73,-4.574C-72.884,-4.574,-74.63,-7.326,-74.63,-10.72C-74.63,-14.114,-72.884,-16.866,-70.73,-16.866Z" /></g></g></g></g></g></g><g id="Group 1"><g id="Group 3"><path fill="#3d86e0" fill-opacity="1" d="M-184.109,-44.755C-184.109,-44.755,-184.554,-71.182,-173.555,-97.439C-159.759,-130.393,-131.637,-144.485,-104.362,-145.439C-71.493,-146.605,-50.915,-124.544,-50.915,-124.544C-50.915,-124.544,-61.617,-143.426,-82.725,-148.851C-96.585,-152.411,-117.502,-152.984,-134.286,-146.16C-151.579,-139.145,-173.131,-119.67,-180.93,-99.092C-188.708,-78.514,-192.501,-46.471,-192.501,-46.471L-184.109,-44.755Z" /></g><g id="Group 2"><g id="Group 2"><path fill="#56c4f9" fill-opacity="1" d="M-192.685,-53.176C-178.611,-54.639,-165.404,-38.537,-163.187,-17.211C-160.97,4.115,-170.582,22.59,-184.656,24.053C-198.73,25.516,-211.937,9.414,-214.154,-11.912C-216.371,-33.238,-206.759,-51.713,-192.685,-53.176Z" /></g><g id="Group 1"><path fill="#3d86e0" fill-opacity="1" d="M-199.832,-40.686C-190.746,-42.051,-181.433,-30.201,-179.031,-14.217C-176.629,1.767,-182.048,15.832,-191.134,17.197C-200.22,18.562,-209.532,6.711,-211.934,-9.273C-214.336,-25.257,-208.918,-39.321,-199.832,-40.686Z" /></g></g><g id="Group 1"><g id="Group 2"><path fill="#3a92c9" fill-opacity="1" d="M-104.15,37.662C-96.613,37.662,-90.503,41.467,-90.503,46.16C-90.503,50.853,-96.613,54.659,-104.15,54.659C-111.687,54.659,-117.798,50.853,-117.798,46.16C-117.798,41.467,-111.687,37.662,-104.15,37.662Z" /></g><g id="Group 1"><path stroke-linejoin="miter" stroke-linecap="round" stroke-width="2" stroke-opacity="1" stroke="#3a92c9" d="M-172.708,17.742C-172.708,17.742,-152.659,43.511,-117.798,46.16" /></g></g></g></g></g></g></g></g></g></g></g><g id="body"><g transform="translate(260.868,705.495)"><animateTransform repeatCount="indefinite" type="translate" attributeName="transform" dur="5.667s" begin="0s" calcMode="spline" values="260.868 705.495; 260.868 708.495; 260.868 705.495; 260.868 705.495; 260.868 706.245; 260.868 705.495; 260.868 705.495; 260.868 706.245; 260.868 705.495; 260.868 705.495; 260.868 708.495; 260.868 705.495; 260.868 705.495; 260.868 708.495; 260.868 705.495; 260.868 705.495; 260.868 706.245; 260.868 705.495; 260.868 705.495; 260.868 706.245; 260.868 705.495; 260.868 705.495; 260.868 708.495; 260.868 705.495" keyTimes="0; 0.055; 0.111; 0.122; 0.16; 0.197; 0.273; 0.311; 0.349; 0.36; 0.415; 0.471; 0.529; 0.585; 0.64; 0.651; 0.689; 0.727; 0.803; 0.84; 0.878; 0.889; 0.945; 1" keySplines="0.333 0 0.667 1; 0.333 0 0.667 1; 0.333 0 0.667 1; 0.333 0 0.667 1; 0.333 0 0.667 1; 0 0 1 1; 0.333 0 0.667 1; 0.333 0 0.667 1; 0 0 1 1; 0.333 0 0.667 1; 0.333 0 0.667 1; 0 0 1 1; 0.333 0 0.667 1; 0.333 0 0.667 1; 0 0 1 1; 0.333 0 0.667 1; 0.333 0 0.667 1; 0 0 1 1; 0.333 0 0.667 1; 0.333 0 0.667 1; 0 0 1 1; 0.333 0 0.667 1; 0.333 0 0.667 1" fill="freeze" /><g transform="rotate(-3)"><animateTransform repeatCount="indefinite" type="rotate" attributeName="transform" dur="5.667s" begin="0s" calcMode="spline" values="-3; 3; 3; 2; 2; 3; 3; -3; -3; 3; 3; 2; 2; 3; 3; -3" keyTimes="0; 0.111; 0.122; 0.197; 0.273; 0.349; 0.36; 0.471; 0.529; 0.64; 0.651; 0.727; 0.803; 0.878; 0.889; 1" keySplines="0.333 0 0.667 1; 0.333 0 0.667 1; 0.333 0 0.667 1; 0.297 0 0.667 1; 0.333 0 0.667 1; 0.31 0 0.667 1; 0.333 0 0.667 1; 0.235 0 0.667 1; 0.333 0 0.667 1; 0.333 0 0.667 1; 0.333 0 0.667 1; 0.297 0 0.667 1; 0.333 0 0.667 1; 0.31 0 0.667 1; 0.333 0 0.667 1" fill="freeze" /><g transform="scale(1,1) translate(239.132,-343.495)"><g id="r arm"><g transform="translate(-233.318,75.366)"><g transform="rotate(-16)"><animateTransform repeatCount="indefinite" type="rotate" attributeName="transform" dur="5.667s" begin="0s" calcMode="spline" values="-16; 0; 0; -16; -16; 0; 0; -16" keyTimes="0; 0.111; 0.36; 0.471; 0.529; 0.64; 0.889; 1" keySplines="0.333 0 0.667 1; 0.298 0 0.667 1; 0.333 0 0.667 1; 0.235 0 0.667 1; 0.333 0 0.667 1; 0.298 0 0.667 1; 0.333 0 0.667 1" fill="freeze" /><g transform="scale(1,1) translate(233.318,-75.366)"><g id="r hand"><g transform="translate(-213.727,187.726)"><animateTransform repeatCount="indefinite" type="translate" attributeName="transform" dur="5.667s" begin="0s" calcMode="spline" values="-213.727 187.726; -205.186 187.494; -205.186 187.494; -205.186 187.494; -205.186 187.494; -205.186 187.494; -205.186 187.494; -213.727 187.726; -213.727 187.726; -205.186 187.494; -205.186 187.494; -205.186 187.494; -205.186 187.494; -205.186 187.494; -205.186 187.494; -213.727 187.726" keyTimes="0; 0.111; 0.122; 0.197; 0.273; 0.349; 0.36; 0.471; 0.529; 0.64; 0.651; 0.727; 0.803; 0.878; 0.889; 1" keySplines="0.333 0 0.667 1; 0 0 1 1; 0 0 1 1; 0 0 1 1; 0 0 1 1; 0 0 1 1; 0.333 0 0.667 1; 0 0 1 1; 0.333 0 0.667 1; 0 0 1 1; 0 0 1 1; 0 0 1 1; 0 0 1 1; 0 0 1 1; 0.333 0 0.667 1" fill="freeze" /><g transform="rotate(0)"><animateTransform repeatCount="indefinite" type="rotate" attributeName="transform" dur="5.667s" begin="0s" calcMode="spline" values="0; 0; 0; 2; 2; 2; 2; 0; 0; 0; 0; 2; 2; 2; 2; 0" keyTimes="0; 0.111; 0.122; 0.199; 0.271; 0.349; 0.36; 0.471; 0.529; 0.64; 0.651; 0.729; 0.801; 0.878; 0.889; 1" keySplines="0.333 0 0.667 1; 0.333 0 0.667 1; 0.333 0 0.667 1; 0.333 0 0.667 1; 0.333 0 0.667 1; 0.333 0 0.667 1; 0.333 0 0.667 1; 0.235 0 0.667 1; 0.333 0 0.667 1; 0.333 0 0.667 1; 0.333 0 0.667 1; 0.333 0 0.667 1; 0.333 0 0.667 1; 0.333 0 0.667 1; 0.333 0 0.667 1" fill="freeze" /><g transform="scale(1,1) translate(205.186,-187.494)"><g id="Group 2"><g id="Group 2"><path fill="#f9a07b" fill-opacity="1" d="M-162.098,146.938L-124.487,164.158C-124.487,164.158,-141.24,273.342,-162.882,322.93C-187.13,378.489,-223.134,344.883,-233.297,330.731C-239.942,321.477,-252.39,293.814,-259.278,263.318C-266.483,231.275,-271.104,200.08,-271.104,200.08L-199.262,186.009C-199.262,186.009,-199.219,229.813,-196.782,255.138C-195.913,264.569,-194.663,271.435,-192.989,272.558C-186.652,276.733,-162.098,146.938,-162.098,146.938Z" /></g><g id="Group 1"><path fill="#e06a58" fill-opacity="1" d="M-196.782,255.096C-209.836,259.334,-235.034,265.882,-259.278,263.297C-266.483,231.254,-271.104,200.059,-271.104,200.059L-199.262,185.988C-199.262,185.967,-199.219,229.771,-196.782,255.096Z" /></g></g><g id="Group 1"><g id="Group 2"><path fill="#f9a07b" fill-opacity="1" d="M-163.591,150.118C-157.643,132.455,-149.951,101.139,-146.19,88.487C-143.519,79.501,-120.904,65.402,-107.781,65.912C-102.048,66.135,-76.152,78.501,-83.529,85.134C-87.227,88.459,-97.361,81.532,-102.419,80.257C-106.535,79.219,-111.893,80.525,-117.805,83.843C-107.403,85.457,-100.173,89.966,-91.292,95.683C-89.33,96.946,-87.294,98.307,-86.152,100.31C-85.005,102.322,-85.03,105.158,-86.867,106.539C-88.736,107.944,-91.43,107.212,-93.701,106.427C-101.554,103.714,-109.417,101.019,-117.673,96.908C-109.804,101.38,-102.111,106.189,-94.629,111.273C-88.904,115.163,-87.409,120.035,-90.585,123.062C-92.003,124.414,-93.888,124.182,-96.267,123.707C-93.107,127.061,-90.529,132.28,-94.221,134.877C-96.463,136.454,-105.017,133.177,-112.772,128.057C-112.585,137.335,-115.347,146.046,-120.175,155.108C-124.504,163.234,-130.782,170.45,-138.981,172.016C-147.101,166.556,-157.887,156.411,-163.591,150.118Z" /></g><g id="Group 1"><path stroke-linejoin="miter" stroke-linecap="round" stroke-width="1" stroke-opacity="1" stroke="#cc454e" d="M-97.372,122.829C-103.364,118.558,-110.085,115.309,-117.124,113.301" /></g></g></g></g></g></g></g></g></g></g></g></g></g></g><g id="body"><g transform="translate(260.868,705.495)"><animateTransform repeatCount="indefinite" type="translate" attributeName="transform" dur="5.667s" begin="0s" calcMode="spline" values="260.868 705.495; 260.868 708.495; 260.868 705.495; 260.868 705.495; 260.868 706.245; 260.868 705.495; 260.868 705.495; 260.868 706.245; 260.868 705.495; 260.868 705.495; 260.868 708.495; 260.868 705.495; 260.868 705.495; 260.868 708.495; 260.868 705.495; 260.868 705.495; 260.868 706.245; 260.868 705.495; 260.868 705.495; 260.868 706.245; 260.868 705.495; 260.868 705.495; 260.868 708.495; 260.868 705.495" keyTimes="0; 0.055; 0.111; 0.122; 0.16; 0.197; 0.273; 0.311; 0.349; 0.36; 0.415; 0.471; 0.529; 0.585; 0.64; 0.651; 0.689; 0.727; 0.803; 0.84; 0.878; 0.889; 0.945; 1" keySplines="0.333 0 0.667 1; 0.333 0 0.667 1; 0.333 0 0.667 1; 0.333 0 0.667 1; 0.333 0 0.667 1; 0 0 1 1; 0.333 0 0.667 1; 0.333 0 0.667 1; 0 0 1 1; 0.333 0 0.667 1; 0.333 0 0.667 1; 0 0 1 1; 0.333 0 0.667 1; 0.333 0 0.667 1; 0 0 1 1; 0.333 0 0.667 1; 0.333 0 0.667 1; 0 0 1 1; 0.333 0 0.667 1; 0.333 0 0.667 1; 0 0 1 1; 0.333 0 0.667 1; 0.333 0 0.667 1" fill="freeze" /><g transform="rotate(-3)"><animateTransform repeatCount="indefinite" type="rotate" attributeName="transform" dur="5.667s" begin="0s" calcMode="spline" values="-3; 3; 3; 2; 2; 3; 3; -3; -3; 3; 3; 2; 2; 3; 3; -3" keyTimes="0; 0.111; 0.122; 0.197; 0.273; 0.349; 0.36; 0.471; 0.529; 0.64; 0.651; 0.727; 0.803; 0.878; 0.889; 1" keySplines="0.333 0 0.667 1; 0.333 0 0.667 1; 0.333 0 0.667 1; 0.297 0 0.667 1; 0.333 0 0.667 1; 0.31 0 0.667 1; 0.333 0 0.667 1; 0.235 0 0.667 1; 0.333 0 0.667 1; 0.333 0 0.667 1; 0.333 0 0.667 1; 0.297 0 0.667 1; 0.333 0 0.667 1; 0.31 0 0.667 1; 0.333 0 0.667 1" fill="freeze" /><g transform="scale(1,1) translate(239.132,-343.495)"><g id="head"><g transform="translate(-182.438,16.708)"><animateTransform repeatCount="indefinite" type="translate" attributeName="transform" dur="5.667s" begin="0s" calcMode="spline" values="-182.438 16.708; -181.938 19.208; -182.438 16.708; -182.438 16.708; -182.384 17.957; -182.438 16.708; -182.438 16.708; -182.384 17.957; -182.438 16.708; -182.438 16.708; -181.938 19.208; -182.438 16.708; -182.438 16.708; -181.938 19.208; -182.438 16.708; -182.438 16.708; -182.384 17.957; -182.438 16.708; -182.438 16.708; -182.384 17.957; -182.438 16.708; -182.438 16.708; -181.938 19.208; -182.438 16.708" keyTimes="0; 0.055; 0.111; 0.122; 0.16; 0.197; 0.273; 0.311; 0.349; 0.36; 0.415; 0.471; 0.529; 0.585; 0.64; 0.651; 0.689; 0.727; 0.803; 0.84; 0.878; 0.889; 0.945; 1" keySplines="0.333 0 0.667 1; 0.333 0 0.667 1; 0 0 1 1; 0.333 0 0.667 1; 0.333 0 0.667 1; 0 0 1 1; 0.333 0 0.667 1; 0.333 0 0.667 1; 0 0 1 1; 0.333 0 0.667 1; 0.333 0 0.667 1; 0.137 0 0.667 1; 0.333 0 0.667 1; 0.333 0 0.667 1; 0 0 1 1; 0.333 0 0.667 1; 0.333 0 0.667 1; 0 0 1 1; 0.333 0 0.667 1; 0.333 0 0.667 1; 0 0 1 1; 0.333 0 0.667 1; 0.333 0 0.667 1" fill="freeze" /><g transform="rotate(-6)"><animateTransform repeatCount="indefinite" type="rotate" attributeName="transform" dur="5.667s" begin="0s" calcMode="spline" values="-6; 5; 5; 0; 0; 5; 5; -6; -6; 5; 5; 0; 0; 5; 5; -6" keyTimes="0; 0.111; 0.122; 0.197; 0.273; 0.349; 0.36; 0.471; 0.529; 0.64; 0.651; 0.727; 0.803; 0.878; 0.889; 1" keySplines="0.333 0 0.667 1; 0.333 0 0.667 1; 0.333 0 0.833 1; 0.167 0 0.833 1; 0.167 0 0.667 1; 0.31 0 0.667 1; 0.333 0 0.667 1; 0.235 0 0.667 1; 0.333 0 0.667 1; 0.333 0 0.667 1; 0.333 0 0.833 1; 0.167 0 0.833 1; 0.167 0 0.667 1; 0.31 0 0.667 1; 0.333 0 0.667 1" fill="freeze" /><g transform="scale(1,1) translate(182.438,-16.708)"><g transform="matrix(1,0,0,1,0,0)" id="mouth"><g id="Group 2"><g id="Group 1"><g id="Group 3"><path fill="#cc454e" fill-opacity="1" d="M-94.593,21.789C-94.593,21.789,-95.356,23.273,-96.818,25.286C-99.107,28.359,-103.006,32.597,-108.325,34.25L-108.347,34.25C-110.593,34.971,-113.03,35.225,-115.743,34.738C-123.711,33.318,-125.81,25.964,-126.191,20.306C-126.276,19.204,-126.275,18.186,-126.254,17.254C-126.212,14.965,-125.957,13.439,-125.957,13.439C-113.263,20.432,-94.593,21.789,-94.593,21.789Z" /></g><g id="Group 2"><path fill="#ffffff" fill-opacity="1" d="M-94.593,21.789C-94.593,21.789,-95.356,23.273,-96.818,25.286C-103.303,25.201,-116.569,21.874,-126.254,17.254C-126.212,14.965,-125.957,13.439,-125.957,13.439C-113.263,20.432,-94.593,21.789,-94.593,21.789Z" /></g><g id="Group 1"><path fill="#e8729b" fill-opacity="1" d="M-108.347,34.229C-110.593,34.95,-113.03,35.204,-115.743,34.717C-123.711,33.297,-125.81,25.943,-126.191,20.285C-122.334,20.751,-118.604,22.235,-115.51,24.587C-112.268,27.067,-109.788,30.436,-108.347,34.229Z" /></g></g></g></g></g></g></g></g></g></g></g></g><g id="body"><g transform="translate(260.868,705.495)"><animateTransform repeatCount="indefinite" type="translate" attributeName="transform" dur="5.667s" begin="0s" calcMode="spline" values="260.868 705.495; 260.868 708.495; 260.868 705.495; 260.868 705.495; 260.868 706.245; 260.868 705.495; 260.868 705.495; 260.868 706.245; 260.868 705.495; 260.868 705.495; 260.868 708.495; 260.868 705.495; 260.868 705.495; 260.868 708.495; 260.868 705.495; 260.868 705.495; 260.868 706.245; 260.868 705.495; 260.868 705.495; 260.868 706.245; 260.868 705.495; 260.868 705.495; 260.868 708.495; 260.868 705.495" keyTimes="0; 0.055; 0.111; 0.122; 0.16; 0.197; 0.273; 0.311; 0.349; 0.36; 0.415; 0.471; 0.529; 0.585; 0.64; 0.651; 0.689; 0.727; 0.803; 0.84; 0.878; 0.889; 0.945; 1" keySplines="0.333 0 0.667 1; 0.333 0 0.667 1; 0.333 0 0.667 1; 0.333 0 0.667 1; 0.333 0 0.667 1; 0 0 1 1; 0.333 0 0.667 1; 0.333 0 0.667 1; 0 0 1 1; 0.333 0 0.667 1; 0.333 0 0.667 1; 0 0 1 1; 0.333 0 0.667 1; 0.333 0 0.667 1; 0 0 1 1; 0.333 0 0.667 1; 0.333 0 0.667 1; 0 0 1 1; 0.333 0 0.667 1; 0.333 0 0.667 1; 0 0 1 1; 0.333 0 0.667 1; 0.333 0 0.667 1" fill="freeze" /><g transform="rotate(-3)"><animateTransform repeatCount="indefinite" type="rotate" attributeName="transform" dur="5.667s" begin="0s" calcMode="spline" values="-3; 3; 3; 2; 2; 3; 3; -3; -3; 3; 3; 2; 2; 3; 3; -3" keyTimes="0; 0.111; 0.122; 0.197; 0.273; 0.349; 0.36; 0.471; 0.529; 0.64; 0.651; 0.727; 0.803; 0.878; 0.889; 1" keySplines="0.333 0 0.667 1; 0.333 0 0.667 1; 0.333 0 0.667 1; 0.297 0 0.667 1; 0.333 0 0.667 1; 0.31 0 0.667 1; 0.333 0 0.667 1; 0.235 0 0.667 1; 0.333 0 0.667 1; 0.333 0 0.667 1; 0.333 0 0.667 1; 0.297 0 0.667 1; 0.333 0 0.667 1; 0.31 0 0.667 1; 0.333 0 0.667 1" fill="freeze" /><g transform="scale(1,1) translate(239.132,-343.495)"><g id="r arm"><g transform="translate(-233.318,75.366)"><g transform="rotate(-16)"><animateTransform repeatCount="indefinite" type="rotate" attributeName="transform" dur="5.667s" begin="0s" calcMode="spline" values="-16; 0; 0; -16; -16; 0; 0; -16" keyTimes="0; 0.111; 0.36; 0.471; 0.529; 0.64; 0.889; 1" keySplines="0.333 0 0.667 1; 0.298 0 0.667 1; 0.333 0 0.667 1; 0.235 0 0.667 1; 0.333 0 0.667 1; 0.298 0 0.667 1; 0.333 0 0.667 1" fill="freeze" /><g transform="scale(1,1) translate(233.318,-75.366)"><g id="Group 1"><path fill="#ffc73c" fill-opacity="1" d="M-207.336,114.93C-212.549,100.244,-231.644,70.193,-231.644,70.193C-231.644,70.193,-260.783,82.314,-271.125,102.892C-288.63,137.732,-279.729,237.76,-279.729,237.76C-256.142,247.636,-208.798,247.785,-188.644,244.945C-188.644,244.945,-196.888,144.281,-207.336,114.93Z" /></g></g></g></g></g></g></g></g></g><g transform="matrix(1,0,0,1,500,362)" id="laptop"><g id="Group 2"><g id="Group 2"><g id="Group 2"><g id="Group 1"><path fill="#325f73" fill-opacity="1" d="M-88.998,320.792L-89.189,339.166L239.293,341.115L239.971,320.283L-88.998,320.792Z" /></g></g><g id="Group 1"><g id="Group 2"><path fill="#325f73" fill-opacity="1" d="M381.663,156.869L374.351,149.452L135.09,147.884L15.056,321.47L21.329,326.514L381.663,156.869Z" /></g><g id="Group 1"><path fill="#0b2d50" fill-opacity="1" d="M139.71,154.305L21.329,326.514L247.452,327.637L381.663,156.869L139.71,154.305Z" /></g></g></g><g id="Group 1"><path fill="#3c738c" fill-opacity="1" d="M196.844,237.909C211.38,237.909,223.165,243.801,223.165,251.069C223.165,258.337,211.38,264.23,196.844,264.23C182.307,264.23,170.523,258.337,170.523,251.069C170.523,243.801,182.307,237.909,196.844,237.909Z" /></g></g><g id="Group 1"><path fill="#0b2d50" fill-opacity="1" d="M-415.508,335.076L420.063,335.076L420.063,356.035L-415.508,356.035L-415.508,335.076Z" /></g></g><g visibility="hidden" id="Layer 12"><animate repeatCount="indefinite" begin="3.5s" calcMode="discrete" fill="freeze" dur="1.833s" values="visible; hidden" keyTimes="0; 1" attributeName="visibility" /><g transform="translate(273.444,286.083)"><g transform="scale(0,0)"><animateTransform repeatCount="indefinite" type="scale" attributeName="transform" dur="1.833s" begin="3.5s" calcMode="spline" values="0 0; 1.1 1.1; 1 1; 1 1; 1.1 1.1; 0 0" keyTimes="0; 0.182; 0.273; 0.727; 0.818; 1" keySplines="0.333 0 0.667 1; 0.333 0 0.667 1; 0.297 0 0.667 1; 0.333 0 0.667 1; 0.333 0 0.667 1" fill="freeze" /><g transform="translate(226.556,75.917)"><g id="Group 2"><g id="Group 2"><path fill="#0097d8" fill-opacity="1" d="M-343.124,-180.539C-306.882,-194.294,-266.352,-176.064,-252.597,-139.822C-238.842,-103.58,-257.072,-63.05,-293.314,-49.295C-329.556,-35.541,-370.087,-53.77,-383.841,-90.012C-397.596,-126.254,-379.366,-166.785,-343.124,-180.539Z" /></g><g id="Group 1"><g id="Group 3"><g id="Group 2"><path fill="#ffffff" fill-opacity="1" d="M-319.426,-73.106C-323.492,-64.638,-333.653,-61.069,-342.121,-65.135C-350.589,-69.201,-354.158,-79.361,-350.092,-87.829C-346.026,-96.297,-335.866,-99.867,-327.398,-95.801C-318.93,-91.735,-315.36,-81.574,-319.426,-73.106Z" /></g><g id="Group 1"><path fill="#0097d8" fill-opacity="1" d="M-343.69,-74.363L-344.512,-85.15L-335.581,-91.255L-325.828,-86.572L-325.007,-75.785L-333.938,-69.681L-343.69,-74.363Z" /></g></g><g id="Group 2"><g id="Group 2"><path fill="#ffffff" fill-opacity="1" d="M-286.346,-142.005C-290.412,-133.537,-300.573,-129.968,-309.041,-134.034C-317.509,-138.1,-321.078,-148.26,-317.012,-156.728C-312.946,-165.196,-302.786,-168.766,-294.318,-164.7C-285.85,-160.634,-282.28,-150.473,-286.346,-142.005Z" /></g><g id="Group 1"><path fill="#0097d8" fill-opacity="1" d="M-310.116,-144.292L-309.531,-158.008L-299.194,-167.041L-289.441,-162.359L-290.026,-148.643L-300.364,-139.609L-310.116,-144.292Z" /></g></g><g id="Group 1"><path fill="#ffffff" fill-opacity="1" d="M-322.98,-88.329L-335.991,-94.576L-326.375,-116.758C-325.765,-118.165,-325.101,-119.548,-324.384,-120.904L-313.088,-142.279L-300.077,-136.032L-309.35,-114.187C-310.067,-112.497,-310.862,-110.842,-311.732,-109.226L-322.98,-88.329Z" /></g></g></g><g id="Group 1"><path fill="#0097d8" fill-opacity="1" d="M-269.464,-77.154C-266.956,-78.316,-226.685,-76.48,-226.685,-76.48L-255.713,-103.131L-269.464,-77.154Z" /></g></g></g></g></g><g visibility="hidden" id="Layer 13"><animate repeatCount="indefinite" begin="0.2s" calcMode="discrete" fill="freeze" dur="1.867s" values="visible; hidden" keyTimes="0; 1" attributeName="visibility" /><g transform="translate(519.668,377.591)"><g transform="scale(0,0)"><animateTransform repeatCount="indefinite" type="scale" attributeName="transform" dur="1.833s" begin="0.2s" calcMode="spline" values="0 0; 1.1 1.1; 1 1; 1 1; 1.1 1.1; 0 0" keyTimes="0; 0.182; 0.273; 0.727; 0.818; 1" keySplines="0.333 0 0.667 1; 0.333 0 0.667 1; 0.297 0 0.667 1; 0.333 0 0.667 1; 0.333 0 0.667 1" fill="freeze" /><g transform="translate(-19.668,-15.591)"><g id="Group 2"><g id="Group 2"><path fill="#0097d8" fill-opacity="1" d="M25.61,-34.307L25.61,-70.334C25.61,-80.167,33.579,-88.135,43.412,-88.135L156.918,-88.135C166.751,-88.135,174.719,-80.167,174.719,-70.334L174.719,-34.307C174.719,-24.474,166.751,-16.505,156.918,-16.505L43.433,-16.505C33.6,-16.484,25.61,-24.474,25.61,-34.307Z" /></g><g id="Group 1"><path fill="#0097d8" fill-opacity="1" d="M73.547,-36.193L18.617,17.318L107.646,-27.674" /></g></g><g id="Group 1"><g id="Group 8"><path fill="#ffffff" fill-opacity="1" d="M39.385,-71.224L39.385,-71.415C39.385,-72.877,40.572,-74.064,42.034,-74.064L98.152,-74.064C99.614,-74.064,100.801,-72.877,100.801,-71.415L100.801,-71.224C100.801,-69.762,99.614,-68.575,98.152,-68.575L42.034,-68.575C40.572,-68.575,39.385,-69.762,39.385,-71.224Z" /></g><g id="Group 7"><path fill="#ffffff" fill-opacity="1" d="M103.322,-71.224L103.322,-71.415C103.322,-72.877,104.51,-74.064,105.972,-74.064L154.947,-74.064C156.409,-74.064,157.596,-72.877,157.596,-71.415L157.596,-71.224C157.596,-69.762,156.409,-68.575,154.947,-68.575L105.972,-68.575C104.51,-68.575,103.322,-69.762,103.322,-71.224Z" /></g><g id="Group 6"><path fill="#ffffff" fill-opacity="1" d="M81.939,-59.165L81.939,-59.356C81.939,-60.818,83.126,-62.005,84.588,-62.005L154.947,-62.005C156.409,-62.005,157.596,-60.818,157.596,-59.356L157.596,-59.165C157.596,-57.703,156.409,-56.516,154.947,-56.516L84.588,-56.516C83.126,-56.516,81.939,-57.703,81.939,-59.165Z" /></g><g id="Group 5"><path fill="#ffffff" fill-opacity="1" d="M39.385,-59.165L39.385,-59.356C39.385,-60.818,40.572,-62.005,42.034,-62.005L73.462,-62.005C74.924,-62.005,76.112,-60.818,76.112,-59.356L76.112,-59.165C76.112,-57.703,74.924,-56.516,73.462,-56.516L42.034,-56.516C40.572,-56.516,39.385,-57.703,39.385,-59.165Z" /></g><g id="Group 4"><path fill="#ffffff" fill-opacity="1" d="M91.709,-47.107L91.709,-47.298C91.709,-48.76,92.896,-49.947,94.358,-49.947L154.947,-49.947C156.409,-49.947,157.596,-48.76,157.596,-47.298L157.596,-47.107C157.596,-45.645,156.409,-44.458,154.947,-44.458L94.358,-44.458C92.896,-44.458,91.709,-45.645,91.709,-47.107Z" /></g><g id="Group 3"><path fill="#ffffff" fill-opacity="1" d="M39.385,-47.107L39.385,-47.298C39.385,-48.76,40.572,-49.947,42.034,-49.947L83.889,-49.947C85.351,-49.947,86.538,-48.76,86.538,-47.298L86.538,-47.107C86.538,-45.645,85.351,-44.458,83.889,-44.458L42.034,-44.458C40.572,-44.458,39.385,-45.645,39.385,-47.107Z" /></g><g id="Group 2"><path fill="#ffffff" fill-opacity="1" d="M39.385,-35.049L39.385,-35.239C39.385,-36.701,40.572,-37.888,42.034,-37.888L57.568,-37.888C59.03,-37.888,60.217,-36.701,60.217,-35.239L60.217,-35.049C60.217,-33.587,59.03,-32.4,57.568,-32.4L42.034,-32.4C40.572,-32.4,39.385,-33.587,39.385,-35.049Z" /></g><g id="Group 1"><path fill="#ffffff" fill-opacity="1" d="M65.706,-35.049L65.706,-35.239C65.706,-36.701,66.893,-37.888,68.355,-37.888L154.947,-37.888C156.409,-37.888,157.596,-36.701,157.596,-35.239L157.596,-35.049C157.596,-33.587,156.409,-32.4,154.947,-32.4L68.355,-32.4C66.893,-32.4,65.706,-33.587,65.706,-35.049Z" /></g></g></g></g></g></g></svg>